<svg width="375" height="711" viewBox="0 0 375 711" fill="none" xmlns="http://www.w3.org/2000/svg">
<g filter="url(#filter0_f_78_137)">
<path d="M249.015 837.855L-70.3263 532.959M337.298 508.377L292.002 490.645M292.002 490.645L235.779 468.636M292.002 490.645L250.122 646.941M292.002 490.645L334.087 333.583M235.779 468.636L200.019 454.637M235.779 468.636L274.24 325.097M235.779 468.636L197.421 611.79M200.019 454.637L171.013 443.282M200.019 454.637L163.9 589.433M200.019 454.637L236.175 319.7M171.013 443.282L145.981 433.483M171.013 443.282L205.3 315.322M171.013 443.282L136.712 571.298M145.981 433.483L125.08 425.301M145.981 433.483L113.247 555.648M145.981 433.483L178.655 311.543M125.08 425.301L99.6919 415.363M125.08 425.301L157.363 308.524M125.08 425.301L92.8134 542.019M99.6919 415.363L79.0305 407.274M99.6919 415.363L69.8571 526.707M99.6919 415.363L129.382 304.557M79.0305 407.274L63.9317 401.364M79.0305 407.274L50.4898 513.79M79.0305 407.274L107.389 301.438M63.9317 401.364L48.833 395.453M63.9317 401.364L91.3174 299.159M63.9317 401.364L36.3367 504.35M48.833 395.453L33.7343 389.543M48.833 395.453L22.1837 494.91M48.833 395.453L75.2456 296.88M33.7343 389.543L19.6289 384.021M33.7343 389.543L59.1737 294.601M33.7343 389.543L8.03063 485.47M19.6289 384.021L4.40567 378.061M19.6289 384.021L-5.19131 476.651M19.6289 384.021L44.1593 292.472M4.40567 378.061L-7.78719 373.288M4.40567 378.061L-19.7012 466.973M4.40567 378.061L28.2243 290.213M-7.78719 373.288L-18.3166 369.167M-7.78719 373.288L14.9762 288.334M-7.78719 373.288L-30.8903 459.51M-18.3166 369.167L-25.6673 366.289M-18.3166 369.167L-40.7602 452.927M-18.3166 369.167L3.76826 286.745M-25.6673 366.289L-92.5121 615.758M-25.6673 366.289L-4.05619 285.635M382.302 340.42L334.087 333.583M334.087 333.583L274.24 325.097M334.087 333.583L375.474 179.123M274.24 325.097L236.175 319.7M274.24 325.097L312.28 183.131M236.175 319.7L205.3 315.322M236.175 319.7L272.086 185.679M205.3 315.322L178.655 311.543M205.3 315.322L239.484 187.746M178.655 311.543L157.363 308.524M178.655 311.543L211.348 189.531M157.363 308.524L129.382 304.557M157.363 308.524L189.882 190.892M129.382 304.557L107.389 301.438M129.382 304.557L159.319 192.83M107.389 301.438L91.3174 299.159M107.389 301.438L136.096 194.302M91.3174 299.159L75.2456 296.88M91.3174 299.159L119.125 195.378M75.2456 296.88L59.1737 294.601M75.2456 296.88L102.155 196.454M59.1737 294.601L44.1593 292.472M59.1737 294.601L85.1838 197.531M44.1593 292.472L28.2243 290.213M44.1593 292.472L69.3295 198.536M28.2243 290.213L14.9762 288.334M28.2243 290.213L52.7966 199.584M14.9762 288.334L3.76826 286.745M14.9762 288.334L38.514 200.49M3.76826 286.745L-4.05619 285.635M3.76826 286.745L26.6791 201.24M-4.05619 285.635L18.417 201.764M426.386 175.895L375.474 179.123M375.474 179.123L312.28 183.131M375.474 179.123L416.567 25.7634M312.28 183.131L272.086 185.679M312.28 183.131L350.087 42.0311M272.086 185.679L239.484 187.746M272.086 185.679L307.804 52.378M239.484 187.746L211.348 189.531M239.484 187.746L273.507 60.7705M211.348 189.531L189.882 190.892M211.348 189.531L243.909 68.0133M189.882 190.892L159.319 192.83M189.882 190.892L222.396 73.2775M159.319 192.83L136.096 194.302M159.319 192.83L189.175 81.4068M136.096 194.302L119.125 195.378M136.096 194.302L164.745 87.3851M119.125 195.378L102.155 196.454M119.125 195.378L146.891 91.7538M102.155 196.454L85.1838 197.531M102.155 196.454L129.038 96.1225M85.1838 197.531L69.3295 198.536M85.1838 197.531L111.185 100.491M69.3295 198.536L52.7966 199.584M69.3295 198.536L94.5069 104.572M52.7966 199.584L38.514 200.49M52.7966 199.584L77.424 108.753M38.514 200.49L26.6791 201.24M38.514 200.49L62.0895 112.505M26.6791 201.24L18.417 201.764M26.6791 201.24L49.6393 115.552M18.417 201.764L40.9477 117.679M470.126 12.6573L416.567 25.7634M416.567 25.7634L350.087 42.0311M416.567 25.7634L423.431 0.145478M350.087 42.0311L307.804 52.378M350.087 42.0311L365.472 -15.3846M307.804 52.378L273.507 60.7705M307.804 52.378L328.608 -25.2624M273.507 60.7705L243.909 68.0133M273.507 60.7705L298.706 -33.2743M243.909 68.0133L222.396 73.2775M243.909 68.0133L272.901 -40.1888M222.396 73.2775L189.175 81.4068M222.396 73.2775L255.084 -44.963L219.135 -30.4037M189.175 81.4068L164.745 87.3851M189.175 81.4068L219.135 -30.4037M164.745 87.3851L146.891 91.7538M164.745 87.3851L193.527 -20.0327M146.891 91.7538L129.038 96.1225M146.891 91.7538L174.814 -12.4539M129.038 96.1225L111.185 100.491M129.038 96.1225L156.101 -4.87511M111.185 100.491L94.5069 104.572M111.185 100.491L137.387 2.70368M94.5069 104.572L77.424 108.753M94.5069 104.572L119.905 9.78392M77.424 108.753L62.0895 112.505M77.424 108.753L102.327 16.903M62.0895 112.505L49.6393 115.552M62.0895 112.505L85.9261 23.5454M49.6393 115.552L40.9477 117.679M49.6393 115.552L72.8762 28.8306M40.9477 117.679L63.7658 32.5203M219.135 -30.4037L193.527 -20.0327M219.135 -30.4037L225.183 -52.975M193.527 -20.0327L174.814 -12.4539M193.527 -20.0327L203.883 -58.6822M174.814 -12.4539L156.101 -4.87511M174.814 -12.4539L188.318 -62.8528M156.101 -4.87511L137.387 2.70368M156.101 -4.87511L172.753 -67.0234M137.387 2.70368L119.905 9.78392M137.387 2.70368L157.188 -71.194M119.905 9.78392L102.327 16.903M119.905 9.78392L142.647 -75.0902L125.199 -67.4544M102.327 16.903L85.9261 23.5454M102.327 16.903L125.199 -67.4544M85.9261 23.5454L72.8762 28.8306M85.9261 23.5454L108.332 -60.0725M72.8762 28.8306L63.7658 32.5203M72.8762 28.8306L95.1522 -54.3048M63.7658 32.5203L85.9516 -50.2783M125.199 -67.4544L108.332 -60.0725M125.199 -67.4544L128.311 -78.9316M108.332 -60.0725L95.1522 -54.3048M108.332 -60.0725L114.385 -82.6632M95.1522 -54.3048L85.9516 -50.2783M95.1522 -54.3048L103.53 -85.5716M85.9516 -50.2783L95.9525 -87.6021M292.582 675.261L250.122 646.941M250.122 646.941L197.421 611.79M250.122 646.941L201.515 828.347M197.421 611.79L163.9 589.433M197.421 611.79L143.556 812.817M163.9 589.433L136.712 571.298M163.9 589.433L106.692 802.939M136.712 571.298L113.247 555.648M136.712 571.298L76.7907 794.927M113.247 555.648L92.8134 542.019M113.247 555.648L50.9856 788.012M92.8134 542.019L69.8571 526.707M92.8134 542.019L28.0238 776.383M69.8571 526.707L50.4898 513.79M69.8571 526.707L9.55229 751.768M50.4898 513.79L36.3367 504.35M50.4898 513.79L-7.26974 729.351M36.3367 504.35L22.1837 494.91M36.3367 504.35L-19.5628 712.97M22.1837 494.91L8.03063 485.47M22.1837 494.91L-31.8558 696.588M8.03063 485.47L-5.19131 476.651M8.03063 485.47L-44.1488 680.206M-5.19131 476.651L-19.7012 466.973M-5.19131 476.651L-55.6331 664.902M-19.7012 466.973L-30.8903 459.51M-19.7012 466.973L-68.6595 647.543M-30.8903 459.51L-40.7602 452.927M-30.8903 459.51L-77.9546 635.157M-40.7602 452.927L-47.6232 448.23M-40.7602 452.927L-86.5274 623.733M33.1678 783.238L28.0238 776.383M28.0238 776.383L9.55229 751.768M28.0238 776.383L26.6142 781.482M9.55229 751.768L-7.26974 729.351M9.55229 751.768L3.26674 775.226M-7.26974 729.351L-19.5628 712.97M-7.26974 729.351L-18.0327 769.519M-19.5628 712.97L-31.8558 696.588M-19.5628 712.97L-33.5976 765.348M-31.8558 696.588L-44.1488 680.206M-31.8558 696.588L-49.1626 761.178M-44.1488 680.206L-55.6331 664.902M-44.1488 680.206L-64.8999 757.651L-79.4409 753.754M-55.6331 664.902L-68.6595 647.543M-55.6331 664.902L-79.4409 753.754M-68.6595 647.543L-77.9546 635.157M-68.6595 647.543L-91.8728 733.159M-77.9546 635.157L-86.5274 623.733M-77.9546 635.157L-100.539 719.442M-86.5274 623.733L-92.5121 615.758M-86.5274 623.733L-108.708 706.511M-92.5121 615.758L-114.411 697.484M-79.4409 753.754L-91.8728 733.159M-91.8728 733.159L-100.539 719.442M-91.8728 733.159L-96.0622 748.611M-100.539 719.442L-108.708 706.511M-100.539 719.442L-107.531 745.538M-108.708 706.511L-114.411 697.484M-108.708 706.511L-118.386 742.629M-114.411 697.484L-125.963 740.599" stroke="url(#paint0_linear_78_137)" stroke-width="2"/>
</g>
<g opacity="0.35" filter="url(#filter1_f_78_137)">
<path d="M249.015 837.855L-70.3263 532.959M337.298 508.377L292.002 490.645M292.002 490.645L235.779 468.636M292.002 490.645L250.122 646.941M292.002 490.645L334.087 333.583M235.779 468.636L200.019 454.637M235.779 468.636L274.24 325.097M235.779 468.636L197.421 611.79M200.019 454.637L171.013 443.282M200.019 454.637L163.901 589.433M200.019 454.637L236.175 319.7M171.013 443.282L145.981 433.483M171.013 443.282L205.3 315.322M171.013 443.282L136.712 571.298M145.981 433.483L125.08 425.301M145.981 433.483L113.247 555.648M145.981 433.483L178.655 311.543M125.08 425.301L99.6919 415.363M125.08 425.301L157.363 308.524M125.08 425.301L92.8134 542.019M99.6919 415.363L79.0305 407.274M99.6919 415.363L69.8572 526.707M99.6919 415.363L129.382 304.557M79.0305 407.274L63.9318 401.364M79.0305 407.274L50.4898 513.79M79.0305 407.274L107.389 301.438M63.9318 401.364L48.833 395.453M63.9318 401.364L91.3174 299.159M63.9318 401.364L36.3367 504.35M48.833 395.453L33.7343 389.543M48.833 395.453L22.1837 494.91M48.833 395.453L75.2456 296.88M33.7343 389.543L19.6289 384.021M33.7343 389.543L59.1738 294.601M33.7343 389.543L8.03063 485.47M19.6289 384.021L4.40567 378.061M19.6289 384.021L-5.19131 476.651M19.6289 384.021L44.1593 292.472M4.40567 378.061L-7.78719 373.288M4.40567 378.061L-19.7012 466.973M4.40567 378.061L28.2243 290.213M-7.78719 373.288L-18.3166 369.167M-7.78719 373.288L14.9762 288.334M-7.78719 373.288L-30.8903 459.51M-18.3166 369.167L-25.6673 366.289M-18.3166 369.167L-40.7602 452.927M-18.3166 369.167L3.76826 286.745M-25.6673 366.289L-92.5121 615.758M-25.6673 366.289L-4.05619 285.635M382.302 340.42L334.087 333.583M334.087 333.583L274.24 325.097M334.087 333.583L375.474 179.123M274.24 325.097L236.175 319.7M274.24 325.097L312.28 183.131M236.175 319.7L205.3 315.322M236.175 319.7L272.086 185.679M205.3 315.322L178.655 311.543M205.3 315.322L239.484 187.746M178.655 311.543L157.363 308.524M178.655 311.543L211.348 189.531M157.363 308.524L129.382 304.557M157.363 308.524L189.882 190.892M129.382 304.557L107.389 301.438M129.382 304.557L159.319 192.83M107.389 301.438L91.3174 299.159M107.389 301.438L136.096 194.302M91.3174 299.159L75.2456 296.88M91.3174 299.159L119.125 195.378M75.2456 296.88L59.1738 294.601M75.2456 296.88L102.155 196.454M59.1738 294.601L44.1593 292.472M59.1738 294.601L85.1838 197.531M44.1593 292.472L28.2243 290.213M44.1593 292.472L69.3295 198.536M28.2243 290.213L14.9762 288.334M28.2243 290.213L52.7966 199.584M14.9762 288.334L3.76826 286.745M14.9762 288.334L38.514 200.49M3.76826 286.745L-4.05619 285.635M3.76826 286.745L26.6791 201.24M-4.05619 285.635L18.417 201.764M426.386 175.895L375.474 179.123M375.474 179.123L312.28 183.131M375.474 179.123L416.567 25.7634M312.28 183.131L272.086 185.679M312.28 183.131L350.087 42.0311M272.086 185.679L239.484 187.746M272.086 185.679L307.804 52.378M239.484 187.746L211.348 189.531M239.484 187.746L273.507 60.7705M211.348 189.531L189.882 190.892M211.348 189.531L243.909 68.0133M189.882 190.892L159.319 192.83M189.882 190.892L222.396 73.2775M159.319 192.83L136.096 194.302M159.319 192.83L189.175 81.4068M136.096 194.302L119.125 195.378M136.096 194.302L164.745 87.3851M119.125 195.378L102.155 196.454M119.125 195.378L146.891 91.7538M102.155 196.454L85.1838 197.531M102.155 196.454L129.038 96.1225M85.1838 197.531L69.3295 198.536M85.1838 197.531L111.185 100.491M69.3295 198.536L52.7966 199.584M69.3295 198.536L94.5069 104.572M52.7966 199.584L38.514 200.49M52.7966 199.584L77.424 108.753M38.514 200.49L26.6791 201.24M38.514 200.49L62.0895 112.505M26.6791 201.24L18.417 201.764M26.6791 201.24L49.6393 115.552M18.417 201.764L40.9477 117.679M470.126 12.6573L416.567 25.7634M416.567 25.7634L350.087 42.0311M416.567 25.7634L423.431 0.14548M350.087 42.0311L307.804 52.378M350.087 42.0311L365.472 -15.3846M307.804 52.378L273.507 60.7705M307.804 52.378L328.608 -25.2623M273.507 60.7705L243.909 68.0133M273.507 60.7705L298.706 -33.2743M243.909 68.0133L222.396 73.2775M243.909 68.0133L272.901 -40.1888M222.396 73.2775L189.175 81.4068M222.396 73.2775L255.084 -44.963L219.135 -30.4037M189.175 81.4068L164.745 87.3851M189.175 81.4068L219.135 -30.4037M164.745 87.3851L146.891 91.7538M164.745 87.3851L193.527 -20.0327M146.891 91.7538L129.038 96.1225M146.891 91.7538L174.814 -12.4539M129.038 96.1225L111.185 100.491M129.038 96.1225L156.101 -4.87511M111.185 100.491L94.5069 104.572M111.185 100.491L137.387 2.70368M94.5069 104.572L77.424 108.753M94.5069 104.572L119.905 9.78393M77.424 108.753L62.0895 112.505M77.424 108.753L102.327 16.903M62.0895 112.505L49.6393 115.552M62.0895 112.505L85.9261 23.5455M49.6393 115.552L40.9477 117.679M49.6393 115.552L72.8762 28.8306M40.9477 117.679L63.7658 32.5203M219.135 -30.4037L193.527 -20.0327M219.135 -30.4037L225.183 -52.975M193.527 -20.0327L174.814 -12.4539M193.527 -20.0327L203.883 -58.6822M174.814 -12.4539L156.101 -4.87511M174.814 -12.4539L188.318 -62.8528M156.101 -4.87511L137.387 2.70368M156.101 -4.87511L172.753 -67.0234M137.387 2.70368L119.905 9.78393M137.387 2.70368L157.188 -71.194M119.905 9.78393L102.327 16.903M119.905 9.78393L142.647 -75.0902L125.199 -67.4544M102.327 16.903L85.9261 23.5455M102.327 16.903L125.199 -67.4544M85.9261 23.5455L72.8762 28.8306M85.9261 23.5455L108.332 -60.0725M72.8762 28.8306L63.7658 32.5203M72.8762 28.8306L95.1522 -54.3048M63.7658 32.5203L85.9516 -50.2783M125.199 -67.4544L108.332 -60.0725M125.199 -67.4544L128.311 -78.9316M108.332 -60.0725L95.1522 -54.3048M108.332 -60.0725L114.385 -82.6632M95.1522 -54.3048L85.9516 -50.2783M95.1522 -54.3048L103.53 -85.5716M85.9516 -50.2783L95.9525 -87.6021M292.582 675.261L250.122 646.941M250.122 646.941L197.421 611.79M250.122 646.941L201.515 828.347M197.421 611.79L163.901 589.433M197.421 611.79L143.556 812.817M163.901 589.433L136.712 571.298M163.901 589.433L106.692 802.939M136.712 571.298L113.247 555.648M136.712 571.298L76.7907 794.927M113.247 555.648L92.8134 542.019M113.247 555.648L50.9856 788.012M92.8134 542.019L69.8572 526.707M92.8134 542.019L28.0238 776.383M69.8572 526.707L50.4898 513.79M69.8572 526.707L9.5523 751.768M50.4898 513.79L36.3367 504.35M50.4898 513.79L-7.26973 729.351M36.3367 504.35L22.1837 494.91M36.3367 504.35L-19.5628 712.97M22.1837 494.91L8.03063 485.47M22.1837 494.91L-31.8558 696.588M8.03063 485.47L-5.19131 476.651M8.03063 485.47L-44.1488 680.206M-5.19131 476.651L-19.7012 466.973M-5.19131 476.651L-55.6331 664.902M-19.7012 466.973L-30.8903 459.51M-19.7012 466.973L-68.6595 647.543M-30.8903 459.51L-40.7602 452.927M-30.8903 459.51L-77.9546 635.157M-40.7602 452.927L-47.6232 448.23M-40.7602 452.927L-86.5274 623.733M33.1678 783.238L28.0238 776.383M28.0238 776.383L9.5523 751.768M28.0238 776.383L26.6142 781.482M9.5523 751.768L-7.26973 729.351M9.5523 751.768L3.26675 775.226M-7.26973 729.351L-19.5628 712.97M-7.26973 729.351L-18.0327 769.519M-19.5628 712.97L-31.8558 696.588M-19.5628 712.97L-33.5976 765.348M-31.8558 696.588L-44.1488 680.206M-31.8558 696.588L-49.1626 761.178M-44.1488 680.206L-55.6331 664.902M-44.1488 680.206L-64.8999 757.651L-79.4409 753.754M-55.6331 664.902L-68.6595 647.543M-55.6331 664.902L-79.4409 753.754M-68.6595 647.543L-77.9546 635.157M-68.6595 647.543L-91.8728 733.159M-77.9546 635.157L-86.5274 623.733M-77.9546 635.157L-100.539 719.442M-86.5274 623.733L-92.5121 615.758M-86.5274 623.733L-108.708 706.511M-92.5121 615.758L-114.411 697.484M-79.4409 753.754L-91.8728 733.159M-91.8728 733.159L-100.539 719.442M-91.8728 733.159L-96.0622 748.611M-100.539 719.442L-108.708 706.511M-100.539 719.442L-107.531 745.538M-108.708 706.511L-114.411 697.484M-108.708 706.511L-118.386 742.629M-114.411 697.484L-125.963 740.599" stroke="white"/>
</g>
<path opacity="0.2" d="M249.015 837.855L-70.3263 532.959M337.298 508.377L292.002 490.645M292.002 490.645L235.779 468.636M292.002 490.645L250.122 646.941M292.002 490.645L334.087 333.583M235.779 468.636L200.019 454.637M235.779 468.636L274.24 325.097M235.779 468.636L197.421 611.79M200.019 454.637L171.013 443.282M200.019 454.637L163.901 589.433M200.019 454.637L236.175 319.7M171.013 443.282L145.981 433.483M171.013 443.282L205.3 315.322M171.013 443.282L136.712 571.298M145.981 433.483L125.08 425.301M145.981 433.483L113.247 555.648M145.981 433.483L178.655 311.543M125.08 425.301L99.6919 415.363M125.08 425.301L157.363 308.524M125.08 425.301L92.8134 542.019M99.6919 415.363L79.0305 407.274M99.6919 415.363L69.8572 526.707M99.6919 415.363L129.382 304.557M79.0305 407.274L63.9318 401.364M79.0305 407.274L50.4898 513.79M79.0305 407.274L107.389 301.438M63.9318 401.364L48.833 395.453M63.9318 401.364L91.3174 299.159M63.9318 401.364L36.3367 504.35M48.833 395.453L33.7343 389.543M48.833 395.453L22.1837 494.91M48.833 395.453L75.2456 296.88M33.7343 389.543L19.6289 384.021M33.7343 389.543L59.1738 294.601M33.7343 389.543L8.03063 485.47M19.6289 384.021L4.40567 378.061M19.6289 384.021L-5.19131 476.651M19.6289 384.021L44.1593 292.472M4.40567 378.061L-7.78719 373.288M4.40567 378.061L-19.7012 466.973M4.40567 378.061L28.2243 290.213M-7.78719 373.288L-18.3166 369.167M-7.78719 373.288L14.9762 288.334M-7.78719 373.288L-30.8903 459.51M-18.3166 369.167L-25.6673 366.289M-18.3166 369.167L-40.7602 452.927M-18.3166 369.167L3.76826 286.745M-25.6673 366.289L-92.5121 615.758M-25.6673 366.289L-4.05619 285.635M382.302 340.42L334.087 333.583M334.087 333.583L274.24 325.097M334.087 333.583L375.474 179.123M274.24 325.097L236.175 319.7M274.24 325.097L312.28 183.131M236.175 319.7L205.3 315.322M236.175 319.7L272.086 185.679M205.3 315.322L178.655 311.543M205.3 315.322L239.484 187.746M178.655 311.543L157.363 308.524M178.655 311.543L211.348 189.531M157.363 308.524L129.382 304.557M157.363 308.524L189.882 190.892M129.382 304.557L107.389 301.438M129.382 304.557L159.319 192.83M107.389 301.438L91.3174 299.159M107.389 301.438L136.096 194.302M91.3174 299.159L75.2456 296.88M91.3174 299.159L119.125 195.378M75.2456 296.88L59.1738 294.601M75.2456 296.88L102.155 196.454M59.1738 294.601L44.1593 292.472M59.1738 294.601L85.1838 197.531M44.1593 292.472L28.2243 290.213M44.1593 292.472L69.3295 198.536M28.2243 290.213L14.9762 288.334M28.2243 290.213L52.7966 199.584M14.9762 288.334L3.76826 286.745M14.9762 288.334L38.514 200.49M3.76826 286.745L-4.05619 285.635M3.76826 286.745L26.6791 201.24M-4.05619 285.635L18.417 201.764M426.386 175.895L375.474 179.123M375.474 179.123L312.28 183.131M375.474 179.123L416.567 25.7634M312.28 183.131L272.086 185.679M312.28 183.131L350.087 42.0311M272.086 185.679L239.484 187.746M272.086 185.679L307.804 52.378M239.484 187.746L211.348 189.531M239.484 187.746L273.507 60.7705M211.348 189.531L189.882 190.892M211.348 189.531L243.909 68.0133M189.882 190.892L159.319 192.83M189.882 190.892L222.396 73.2775M159.319 192.83L136.096 194.302M159.319 192.83L189.175 81.4068M136.096 194.302L119.125 195.378M136.096 194.302L164.745 87.3851M119.125 195.378L102.155 196.454M119.125 195.378L146.891 91.7538M102.155 196.454L85.1838 197.531M102.155 196.454L129.038 96.1225M85.1838 197.531L69.3295 198.536M85.1838 197.531L111.185 100.491M69.3295 198.536L52.7966 199.584M69.3295 198.536L94.5069 104.572M52.7966 199.584L38.514 200.49M52.7966 199.584L77.424 108.753M38.514 200.49L26.6791 201.24M38.514 200.49L62.0895 112.505M26.6791 201.24L18.417 201.764M26.6791 201.24L49.6393 115.552M18.417 201.764L40.9477 117.679M470.126 12.6573L416.567 25.7634M416.567 25.7634L350.087 42.0311M416.567 25.7634L423.431 0.14548M350.087 42.0311L307.804 52.378M350.087 42.0311L365.472 -15.3846M307.804 52.378L273.507 60.7705M307.804 52.378L328.608 -25.2623M273.507 60.7705L243.909 68.0133M273.507 60.7705L298.706 -33.2743M243.909 68.0133L222.396 73.2775M243.909 68.0133L272.901 -40.1888M222.396 73.2775L189.175 81.4068M222.396 73.2775L255.084 -44.963L219.135 -30.4037M189.175 81.4068L164.745 87.3851M189.175 81.4068L219.135 -30.4037M164.745 87.3851L146.891 91.7538M164.745 87.3851L193.527 -20.0327M146.891 91.7538L129.038 96.1225M146.891 91.7538L174.814 -12.4539M129.038 96.1225L111.185 100.491M129.038 96.1225L156.101 -4.87511M111.185 100.491L94.5069 104.572M111.185 100.491L137.387 2.70368M94.5069 104.572L77.424 108.753M94.5069 104.572L119.905 9.78393M77.424 108.753L62.0895 112.505M77.424 108.753L102.327 16.903M62.0895 112.505L49.6393 115.552M62.0895 112.505L85.9261 23.5455M49.6393 115.552L40.9477 117.679M49.6393 115.552L72.8762 28.8306M40.9477 117.679L63.7658 32.5203M219.135 -30.4037L193.527 -20.0327M219.135 -30.4037L225.183 -52.975M193.527 -20.0327L174.814 -12.4539M193.527 -20.0327L203.883 -58.6822M174.814 -12.4539L156.101 -4.87511M174.814 -12.4539L188.318 -62.8528M156.101 -4.87511L137.387 2.70368M156.101 -4.87511L172.753 -67.0234M137.387 2.70368L119.905 9.78393M137.387 2.70368L157.188 -71.194M119.905 9.78393L102.327 16.903M119.905 9.78393L142.647 -75.0902L125.199 -67.4544M102.327 16.903L85.9261 23.5455M102.327 16.903L125.199 -67.4544M85.9261 23.5455L72.8762 28.8306M85.9261 23.5455L108.332 -60.0725M72.8762 28.8306L63.7658 32.5203M72.8762 28.8306L95.1522 -54.3048M63.7658 32.5203L85.9516 -50.2783M125.199 -67.4544L108.332 -60.0725M125.199 -67.4544L128.311 -78.9316M108.332 -60.0725L95.1522 -54.3048M108.332 -60.0725L114.385 -82.6632M95.1522 -54.3048L85.9516 -50.2783M95.1522 -54.3048L103.53 -85.5716M85.9516 -50.2783L95.9525 -87.6021M292.582 675.261L250.122 646.941M250.122 646.941L197.421 611.79M250.122 646.941L201.515 828.347M197.421 611.79L163.901 589.433M197.421 611.79L143.556 812.817M163.901 589.433L136.712 571.298M163.901 589.433L106.692 802.939M136.712 571.298L113.247 555.648M136.712 571.298L76.7907 794.927M113.247 555.648L92.8134 542.019M113.247 555.648L50.9856 788.012M92.8134 542.019L69.8572 526.707M92.8134 542.019L28.0238 776.383M69.8572 526.707L50.4898 513.79M69.8572 526.707L9.5523 751.768M50.4898 513.79L36.3367 504.35M50.4898 513.79L-7.26973 729.351M36.3367 504.35L22.1837 494.91M36.3367 504.35L-19.5628 712.97M22.1837 494.91L8.03063 485.47M22.1837 494.91L-31.8558 696.588M8.03063 485.47L-5.19131 476.651M8.03063 485.47L-44.1488 680.206M-5.19131 476.651L-19.7012 466.973M-5.19131 476.651L-55.6331 664.902M-19.7012 466.973L-30.8903 459.51M-19.7012 466.973L-68.6595 647.543M-30.8903 459.51L-40.7602 452.927M-30.8903 459.51L-77.9546 635.157M-40.7602 452.927L-47.6232 448.23M-40.7602 452.927L-86.5274 623.733M33.1678 783.238L28.0238 776.383M28.0238 776.383L9.5523 751.768M28.0238 776.383L26.6142 781.482M9.5523 751.768L-7.26973 729.351M9.5523 751.768L3.26675 775.226M-7.26973 729.351L-19.5628 712.97M-7.26973 729.351L-18.0327 769.519M-19.5628 712.97L-31.8558 696.588M-19.5628 712.97L-33.5976 765.348M-31.8558 696.588L-44.1488 680.206M-31.8558 696.588L-49.1626 761.178M-44.1488 680.206L-55.6331 664.902M-44.1488 680.206L-64.8999 757.651L-79.4409 753.754M-55.6331 664.902L-68.6595 647.543M-55.6331 664.902L-79.4409 753.754M-68.6595 647.543L-77.9546 635.157M-68.6595 647.543L-91.8728 733.159M-77.9546 635.157L-86.5274 623.733M-77.9546 635.157L-100.539 719.442M-86.5274 623.733L-92.5121 615.758M-86.5274 623.733L-108.708 706.511M-92.5121 615.758L-114.411 697.484M-79.4409 753.754L-91.8728 733.159M-91.8728 733.159L-100.539 719.442M-91.8728 733.159L-96.0622 748.611M-100.539 719.442L-108.708 706.511M-100.539 719.442L-107.531 745.538M-108.708 706.511L-114.411 697.484M-108.708 706.511L-118.386 742.629M-114.411 697.484L-125.963 740.599" stroke="white"/>
<rect x="471.436" y="7.76877" width="888.408" height="390.731" transform="rotate(105 471.436 7.76877)" fill="url(#paint1_linear_78_137)"/>
<rect x="-134.493" y="759.453" width="885.33" height="390.731" transform="rotate(-75 -134.493 759.453)" fill="url(#paint2_linear_78_137)"/>
<rect opacity="0.5" x="-68.1421" y="507.505" width="379.8" height="391.851" transform="rotate(-75 -68.1421 507.505)" fill="url(#paint3_linear_78_137)"/>
<defs>
<filter id="filter0_f_78_137" x="-128.929" y="-89.8609" width="601.292" height="930.44" filterUnits="userSpaceOnUse" color-interpolation-filters="sRGB">
<feFlood flood-opacity="0" result="BackgroundImageFix"/>
<feBlend mode="normal" in="SourceGraphic" in2="BackgroundImageFix" result="shape"/>
<feGaussianBlur stdDeviation="1" result="effect1_foregroundBlur_78_137"/>
</filter>
<filter id="filter1_f_78_137" x="-127.446" y="-88.7315" width="598.691" height="927.949" filterUnits="userSpaceOnUse" color-interpolation-filters="sRGB">
<feFlood flood-opacity="0" result="BackgroundImageFix"/>
<feBlend mode="normal" in="SourceGraphic" in2="BackgroundImageFix" result="shape"/>
<feGaussianBlur stdDeviation="0.5" result="effect1_foregroundBlur_78_137"/>
</filter>
<linearGradient id="paint0_linear_78_137" x1="-127.801" y1="485.753" x2="458.291" y2="128.094" gradientUnits="userSpaceOnUse">
<stop stop-color="#480064"/>
<stop offset="0.197115" stop-color="#9A00D7"/>
<stop offset="0.677885" stop-color="#8B04C1"/>
<stop offset="1" stop-color="#2B1D31"/>
</linearGradient>
<linearGradient id="paint1_linear_78_137" x1="915.639" y1="7.76877" x2="915.639" y2="398.5" gradientUnits="userSpaceOnUse">
<stop/>
<stop offset="0.432692" stop-opacity="0.36"/>
</linearGradient>
<linearGradient id="paint2_linear_78_137" x1="308.172" y1="759.453" x2="308.172" y2="1150.18" gradientUnits="userSpaceOnUse">
<stop/>
<stop offset="0.182692" stop-opacity="0.36"/>
</linearGradient>
<linearGradient id="paint3_linear_78_137" x1="-68.1421" y1="703.431" x2="311.657" y2="703.431" gradientUnits="userSpaceOnUse">
<stop stop-opacity="0"/>
<stop offset="0.442308"/>
<stop offset="0.538462"/>
<stop offset="1" stop-opacity="0"/>
</linearGradient>
</defs>
</svg>
