<svg width="375" height="711" fill="none" xmlns="http://www.w3.org/2000/svg"><g filter="url(#a)"><path d="M249.015 837.855-70.326 532.959m407.624-24.582-45.296-17.732m0 0-56.223-22.009m56.223 22.009-41.88 156.296m41.88-156.296 42.085-157.062m-98.308 135.053-35.76-13.999m35.76 13.999 38.461-143.539m-38.461 143.539L197.421 611.79m2.598-157.153-29.006-11.355m29.006 11.355L163.9 589.433m36.119-134.796L236.175 319.7m-65.162 123.582-25.032-9.799m25.032 9.799 34.287-127.96m-34.287 127.96-34.301 128.016m9.269-137.815-20.901-8.182m20.901 8.182-32.734 122.165m32.734-122.165 32.674-121.94M125.08 425.301l-25.388-9.938m25.388 9.938 32.283-116.777M125.08 425.301 92.813 542.019m6.879-126.656-20.661-8.089m20.66 8.089L69.858 526.707m29.835-111.344 29.69-110.806M79.03 407.274l-15.098-5.91m15.099 5.91L50.49 513.79m28.54-106.516 28.359-105.836m-43.457 99.926-15.099-5.911m15.099 5.911 27.385-102.205M63.932 401.364 36.337 504.35m12.496-108.897-15.099-5.91m15.099 5.91-26.65 99.457m26.65-99.457 26.413-98.573m-41.512 92.663-14.105-5.522m14.105 5.522 25.44-94.942m-25.44 94.942L8.031 485.47m11.598-101.449-15.223-5.96m15.223 5.96-24.82 92.63m24.82-92.63 24.53-91.549M4.406 378.061l-12.193-4.773m12.193 4.773-24.107 88.912m24.107-88.912 23.818-87.848m-36.011 83.075-10.53-4.121m10.53 4.121 22.763-84.954m-22.763 84.954L-30.89 459.51m12.573-90.343-7.35-2.878m7.35 2.878-22.443 83.76m22.443-83.76 22.085-82.422m-29.435 79.544-66.845 249.469m66.845-249.469 21.61-80.654m386.359 54.785-48.215-6.837m0 0-59.847-8.486m59.847 8.486 41.387-154.46M274.24 325.097l-38.065-5.397m38.065 5.397 38.04-141.966M236.175 319.7l-30.875-4.378m30.875 4.378 35.911-134.021M205.3 315.322l-26.645-3.779m26.645 3.779 34.184-127.576m-60.829 123.797-21.292-3.019m21.292 3.019 32.693-122.012m-53.985 118.993-27.981-3.967m27.981 3.967 32.519-117.632m-60.5 113.665-21.993-3.119m21.993 3.119 29.937-111.727m-51.93 108.608-16.072-2.279m16.072 2.279 28.707-107.136M91.317 299.159l-16.071-2.279m16.071 2.279 27.808-103.781M75.245 296.88l-16.071-2.279m16.072 2.279 26.909-100.426m-42.981 98.147-15.015-2.129m15.015 2.129 26.01-97.07m-41.025 94.941-15.935-2.259m15.935 2.259 25.17-93.936m-41.105 91.677-13.248-1.879m13.248 1.879 24.573-90.629m-37.82 88.75-11.209-1.589m11.208 1.589 23.538-87.844M3.768 286.745l-7.824-1.11m7.824 1.11L26.68 201.24m-30.735 84.395 22.473-83.871m407.969-25.869-50.912 3.228m0 0-63.194 4.008m63.194-4.008 41.093-153.36M312.28 183.131l-40.194 2.548m40.194-2.548 37.807-141.1M272.086 185.68l-32.602 2.067m32.602-2.067 35.718-133.301m-68.32 135.368-28.136 1.785m28.136-1.785L273.507 60.77m-62.159 128.761-21.466 1.361m21.466-1.361 32.561-121.518m-54.027 122.879-30.563 1.938m30.563-1.938 32.514-117.614M159.319 192.83l-23.223 1.472m23.223-1.472 29.856-111.423m-53.079 112.895-16.971 1.076m16.971-1.076 28.649-106.917m-45.62 107.993-16.97 1.076m16.97-1.076 27.766-103.624m-44.736 104.7-16.971 1.077m16.971-1.077 26.883-100.332M85.184 197.531l-15.855 1.005m15.855-1.005 26.001-97.04m-41.856 98.045-16.532 1.048m16.532-1.048 25.178-93.964m-41.71 95.012-14.283.906m14.283-.906 24.627-90.831m-38.91 91.737-11.835.75m11.835-.75 23.575-87.985M26.68 201.24l-8.262.524m8.262-.524 22.96-85.688m-31.222 86.212 22.53-84.085M470.127 12.657l-53.559 13.106m0 0-66.48 16.268m66.48-16.268L423.431.145m-73.344 41.886-42.283 10.347m42.283-10.347 15.385-57.416m-57.668 67.763-34.297 8.392m34.297-8.392 20.804-77.64M273.507 60.77l-29.598 7.243m29.598-7.243 25.199-94.044M243.909 68.013l-21.513 5.264m21.513-5.264 28.992-108.202M222.396 73.277l-33.221 8.13m33.221-8.13 32.688-118.24-35.949 14.56m-29.96 111.81-24.43 5.978m24.43-5.978 29.96-111.81m-54.39 117.788-17.854 4.369m17.854-4.369 28.782-107.418M146.891 91.754l-17.853 4.368m17.853-4.368 27.923-104.208M129.038 96.123l-17.853 4.368m17.853-4.368L156.101-4.876M111.185 100.49l-16.678 4.081m16.678-4.081 26.202-97.787m-42.88 101.868-17.083 4.181m17.083-4.181 25.398-94.788m-42.481 98.969-15.335 3.752m15.335-3.752 24.903-91.85M62.09 112.505l-12.45 3.047m12.45-3.047 23.836-88.96M49.64 115.552l-8.691 2.127m8.691-2.127 23.237-86.721m-31.928 88.848L63.766 32.52m155.369-62.924-25.608 10.371m25.608-10.37 6.048-22.572m-31.656 32.942-18.713 7.58m18.713-7.58 10.356-38.65m-29.069 46.23-18.713 7.578m18.713-7.579 13.504-50.399M156.101-4.875l-18.714 7.579m18.714-7.58 16.652-62.147M137.387 2.704l-17.482 7.08m17.482-7.08 19.801-73.898M119.905 9.784l-17.578 7.119m17.578-7.12 22.742-84.873-17.448 7.636m-22.872 84.357-16.4 6.642m16.4-6.642 22.872-84.357m-39.273 91-13.05 5.285m13.05-5.286 22.406-83.617M72.876 28.83l-9.11 3.69m9.11-3.69 22.276-83.136M63.766 32.52l22.186-82.798m39.247-17.176-16.867 7.381m16.867-7.381 3.112-11.478m-19.979 18.86-13.18 5.767m13.18-5.767 6.053-22.591M95.152-54.305l-9.2 4.027m9.2-4.027 8.378-31.267M85.952-50.278l10-37.324m196.63 762.863-42.46-28.32m0 0-52.701-35.151m52.701 35.151-48.607 181.406m-4.094-216.557L163.9 589.433m33.521 22.357-53.865 201.027M163.9 589.433l-27.188-18.135m27.188 18.135-57.208 213.506m30.02-231.641-23.465-15.65m23.465 15.65L76.791 794.927m36.456-239.279-20.434-13.629m20.434 13.629L50.986 788.012m41.827-245.993-22.956-15.312m22.956 15.312-64.79 234.364m41.834-249.676L50.49 513.79m19.367 12.917L9.552 751.768M50.49 513.79l-14.153-9.44m14.153 9.44L-7.27 729.351M36.337 504.35l-14.153-9.44m14.153 9.44-55.9 208.62m41.747-218.06L8.03 485.47m14.153 9.44-54.04 201.678M8.031 485.47l-13.222-8.819M8.03 485.47l-52.18 194.736M-5.19 476.651l-14.51-9.678m14.51 9.678-50.442 188.251m35.932-197.929-11.19-7.463m11.19 7.463-48.958 180.57M-30.89 459.51l-9.87-6.583m9.87 6.583-47.065 175.647m37.195-182.23-6.863-4.697m6.863 4.697-45.767 170.806M33.168 783.238l-5.144-6.855m0 0L9.552 751.768m18.472 24.615-1.41 5.099M9.552 751.768-7.27 729.351m16.822 22.417-6.285 23.458M-7.27 729.351l-12.293-16.381m12.293 16.381-10.763 40.168m-1.53-56.549-12.293-16.382m12.293 16.382-14.035 52.378m1.742-68.76-12.293-16.382m12.293 16.382-17.307 64.59m5.014-80.972-11.484-15.304m11.484 15.304-20.75 77.445-14.542-3.897m23.808-88.852-13.026-17.359m13.026 17.359-23.808 88.852m10.782-106.211-9.296-12.386m9.296 12.386-23.214 85.616m13.918-98.002-8.572-11.424m8.572 11.424-22.584 84.285m14.012-95.709-5.985-7.975m5.985 7.975-22.181 82.778m16.196-90.753-21.899 81.726m34.97 56.27-12.432-20.595m0 0-8.666-13.717m8.666 13.717-4.19 15.452m-4.476-29.169-8.169-12.931m8.169 12.931-6.992 26.096m-1.177-39.027-5.703-9.027m5.703 9.027-9.678 36.118m3.975-45.145-11.552 43.115" stroke="url(#b)" stroke-width="2"/></g><g opacity=".35" filter="url(#c)"><path d="M249.015 837.855-70.326 532.959m407.624-24.582-45.296-17.732m0 0-56.223-22.009m56.223 22.009-41.88 156.296m41.88-156.296 42.085-157.062m-98.308 135.053-35.76-13.999m35.76 13.999 38.461-143.539m-38.461 143.539L197.421 611.79m2.598-157.153-29.006-11.355m29.006 11.355-36.118 134.796m36.118-134.796L236.175 319.7m-65.162 123.582-25.032-9.799m25.032 9.799 34.287-127.96m-34.287 127.96-34.301 128.016m9.269-137.815-20.901-8.182m20.901 8.182-32.734 122.165m32.734-122.165 32.674-121.94M125.08 425.301l-25.388-9.938m25.388 9.938 32.283-116.777M125.08 425.301 92.813 542.019m6.879-126.656-20.661-8.089m20.66 8.089L69.858 526.707m29.835-111.344 29.69-110.806M79.03 407.274l-15.098-5.91m15.099 5.91L50.49 513.79m28.54-106.516 28.359-105.836m-43.457 99.926-15.099-5.911m15.099 5.911 27.385-102.205M63.932 401.364 36.337 504.35m12.496-108.897-15.099-5.91m15.099 5.91-26.65 99.457m26.65-99.457 26.413-98.573m-41.512 92.663-14.105-5.522m14.105 5.522 25.44-94.942m-25.44 94.942L8.031 485.47m11.598-101.449-15.223-5.96m15.223 5.96-24.82 92.63m24.82-92.63 24.53-91.549M4.406 378.061l-12.193-4.773m12.193 4.773-24.107 88.912m24.107-88.912 23.818-87.848m-36.011 83.075-10.53-4.121m10.53 4.121 22.763-84.954m-22.763 84.954L-30.89 459.51m12.573-90.343-7.35-2.878m7.35 2.878-22.443 83.76m22.443-83.76 22.085-82.422m-29.435 79.544-66.845 249.469m66.845-249.469 21.61-80.654m386.359 54.785-48.215-6.837m0 0-59.847-8.486m59.847 8.486 41.387-154.46M274.24 325.097l-38.065-5.397m38.065 5.397 38.04-141.966M236.175 319.7l-30.875-4.378m30.875 4.378 35.911-134.021M205.3 315.322l-26.645-3.779m26.645 3.779 34.184-127.576m-60.829 123.797-21.292-3.019m21.292 3.019 32.693-122.012m-53.985 118.993-27.981-3.967m27.981 3.967 32.519-117.632m-60.5 113.665-21.993-3.119m21.993 3.119 29.937-111.727m-51.93 108.608-16.072-2.279m16.072 2.279 28.707-107.136M91.317 299.159l-16.071-2.279m16.071 2.279 27.808-103.781M75.245 296.88l-16.071-2.279m16.072 2.279 26.909-100.426m-42.981 98.147-15.015-2.129m15.015 2.129 26.01-97.07m-41.025 94.941-15.935-2.259m15.935 2.259 25.17-93.936m-41.105 91.677-13.248-1.879m13.248 1.879 24.573-90.629m-37.82 88.75-11.209-1.589m11.208 1.589 23.538-87.844M3.768 286.745l-7.824-1.11m7.824 1.11L26.68 201.24m-30.735 84.395 22.473-83.871m407.969-25.869-50.912 3.228m0 0-63.194 4.008m63.194-4.008 41.093-153.36M312.28 183.131l-40.194 2.548m40.194-2.548 37.807-141.1M272.086 185.68l-32.602 2.067m32.602-2.067 35.718-133.301m-68.32 135.368-28.136 1.785m28.136-1.785L273.507 60.77m-62.159 128.761-21.466 1.361m21.466-1.361 32.561-121.518m-54.027 122.879-30.563 1.938m30.563-1.938 32.514-117.614M159.319 192.83l-23.223 1.472m23.223-1.472 29.856-111.423m-53.079 112.895-16.971 1.076m16.971-1.076 28.649-106.917m-45.62 107.993-16.97 1.076m16.97-1.076 27.766-103.624m-44.736 104.7-16.971 1.077m16.971-1.077 26.883-100.332M85.184 197.531l-15.855 1.005m15.855-1.005 26.001-97.04m-41.856 98.045-16.532 1.048m16.532-1.048 25.178-93.964m-41.71 95.012-14.283.906m14.283-.906 24.627-90.831m-38.91 91.737-11.835.75m11.835-.75 23.575-87.985M26.68 201.24l-8.262.524m8.262-.524 22.96-85.688m-31.222 86.212 22.53-84.085M470.127 12.657l-53.559 13.106m0 0-66.48 16.268m66.48-16.268L423.431.145m-73.344 41.886-42.283 10.347m42.283-10.347 15.385-57.416m-57.668 67.763-34.297 8.392m34.297-8.392 20.804-77.64M273.507 60.77l-29.598 7.243m29.598-7.243 25.199-94.044M243.909 68.013l-21.513 5.264m21.513-5.264 28.992-108.202M222.396 73.277l-33.221 8.13m33.221-8.13 32.688-118.24-35.949 14.56m-29.96 111.81-24.43 5.978m24.43-5.978 29.96-111.81m-54.39 117.788-17.854 4.369m17.854-4.369 28.782-107.418M146.891 91.754l-17.853 4.368m17.853-4.368 27.923-104.208M129.038 96.123l-17.853 4.368m17.853-4.368L156.101-4.876M111.185 100.49l-16.678 4.081m16.678-4.081 26.202-97.787m-42.88 101.868-17.083 4.181m17.083-4.181 25.398-94.788m-42.481 98.969-15.335 3.752m15.335-3.752 24.903-91.85M62.09 112.505l-12.45 3.047m12.45-3.047 23.836-88.96M49.64 115.553l-8.691 2.127m8.691-2.127 23.237-86.721m-31.928 88.848L63.766 32.52m155.369-62.924-25.608 10.371m25.608-10.37 6.048-22.572m-31.656 32.942-18.713 7.58m18.713-7.58 10.356-38.65m-29.069 46.23-18.713 7.578m18.713-7.579 13.504-50.399M156.101-4.875l-18.714 7.579m18.714-7.58 16.652-62.147M137.387 2.704l-17.482 7.08m17.482-7.08 19.801-73.898M119.905 9.784l-17.578 7.119m17.578-7.12 22.742-84.873-17.448 7.636m-22.872 84.357-16.4 6.643m16.4-6.643 22.872-84.357m-39.273 91-13.05 5.285m13.05-5.285 22.406-83.618M72.876 28.83l-9.11 3.69m9.11-3.69 22.276-83.136M63.766 32.52l22.186-82.798m39.247-17.176-16.867 7.381m16.867-7.381 3.112-11.478m-19.979 18.86-13.18 5.767m13.18-5.767 6.053-22.591M95.152-54.305l-9.2 4.027m9.2-4.027 8.378-31.267M85.952-50.278l10-37.324m196.63 762.863-42.46-28.32m0 0-52.701-35.151m52.701 35.151-48.607 181.406m-4.094-216.557-33.52-22.357m33.52 22.357-53.865 201.027m20.345-223.384-27.189-18.135m27.189 18.135-57.209 213.506m30.02-231.641-23.465-15.65m23.465 15.65L76.791 794.927m36.456-239.279-20.434-13.629m20.434 13.629L50.986 788.012m41.827-245.993-22.956-15.312m22.956 15.312-64.79 234.364m41.834-249.676L50.49 513.79m19.367 12.917L9.552 751.768M50.49 513.79l-14.153-9.44m14.153 9.44L-7.27 729.351M36.337 504.35l-14.153-9.44m14.153 9.44-55.9 208.62m41.747-218.06L8.03 485.47m14.153 9.44-54.04 201.678M8.031 485.47l-13.222-8.819M8.03 485.47l-52.18 194.736M-5.19 476.651l-14.51-9.678m14.51 9.678-50.442 188.251m35.932-197.929-11.19-7.463m11.19 7.463-48.958 180.57M-30.89 459.51l-9.87-6.583m9.87 6.583-47.065 175.647m37.195-182.23-6.863-4.697m6.863 4.697-45.767 170.806M33.168 783.238l-5.144-6.855m0 0L9.552 751.768m18.472 24.615-1.41 5.099M9.552 751.768-7.27 729.351m16.822 22.417-6.285 23.458M-7.27 729.351l-12.293-16.381m12.293 16.381-10.763 40.168m-1.53-56.549-12.293-16.382m12.293 16.382-14.035 52.378m1.742-68.76-12.293-16.382m12.293 16.382-17.307 64.59m5.014-80.972-11.484-15.304m11.484 15.304-20.75 77.445-14.542-3.897m23.808-88.852-13.026-17.359m13.026 17.359-23.808 88.852m10.782-106.211-9.296-12.386m9.296 12.386-23.214 85.616m13.918-98.002-8.572-11.424m8.572 11.424-22.584 84.285m14.012-95.709-5.985-7.975m5.985 7.975-22.181 82.778m16.196-90.753-21.899 81.726m34.97 56.27-12.432-20.595m0 0-8.666-13.717m8.666 13.717-4.19 15.452m-4.476-29.169-8.169-12.931m8.169 12.931-6.992 26.096m-1.177-39.027-5.703-9.027m5.703 9.027-9.678 36.118m3.975-45.145-11.552 43.115" stroke="#fff"/></g><path opacity=".2" d="M249.015 837.855-70.326 532.959m407.624-24.582-45.296-17.732m0 0-56.223-22.009m56.223 22.009-41.88 156.296m41.88-156.296 42.085-157.062m-98.308 135.053-35.76-13.999m35.76 13.999 38.461-143.539m-38.461 143.539L197.421 611.79m2.598-157.153-29.006-11.355m29.006 11.355-36.118 134.796m36.118-134.796L236.175 319.7m-65.162 123.582-25.032-9.799m25.032 9.799 34.287-127.96m-34.287 127.96-34.301 128.016m9.269-137.815-20.901-8.182m20.901 8.182-32.734 122.165m32.734-122.165 32.674-121.94M125.08 425.301l-25.388-9.938m25.388 9.938 32.283-116.777M125.08 425.301 92.813 542.019m6.879-126.656-20.661-8.089m20.66 8.089L69.858 526.707m29.835-111.344 29.69-110.806M79.03 407.274l-15.098-5.91m15.099 5.91L50.49 513.79m28.54-106.516 28.359-105.836m-43.457 99.926-15.099-5.911m15.099 5.911 27.385-102.205M63.932 401.364 36.337 504.35m12.496-108.897-15.099-5.91m15.099 5.91-26.65 99.457m26.65-99.457 26.413-98.573m-41.512 92.663-14.105-5.522m14.105 5.522 25.44-94.942m-25.44 94.942L8.031 485.47m11.598-101.449-15.223-5.96m15.223 5.96-24.82 92.63m24.82-92.63 24.53-91.549M4.406 378.061l-12.193-4.773m12.193 4.773-24.107 88.912m24.107-88.912 23.818-87.848m-36.011 83.075-10.53-4.121m10.53 4.121 22.763-84.954m-22.763 84.954L-30.89 459.51m12.573-90.343-7.35-2.878m7.35 2.878-22.443 83.76m22.443-83.76 22.085-82.422m-29.435 79.544-66.845 249.469m66.845-249.469 21.61-80.654m386.359 54.785-48.215-6.837m0 0-59.847-8.486m59.847 8.486 41.387-154.46M274.24 325.097l-38.065-5.397m38.065 5.397 38.04-141.966M236.175 319.7l-30.875-4.378m30.875 4.378 35.911-134.021M205.3 315.322l-26.645-3.779m26.645 3.779 34.184-127.576m-60.829 123.797-21.292-3.019m21.292 3.019 32.693-122.012m-53.985 118.993-27.981-3.967m27.981 3.967 32.519-117.632m-60.5 113.665-21.993-3.119m21.993 3.119 29.937-111.727m-51.93 108.608-16.072-2.279m16.072 2.279 28.707-107.136M91.317 299.159l-16.071-2.279m16.071 2.279 27.808-103.781M75.245 296.88l-16.071-2.279m16.072 2.279 26.909-100.426m-42.981 98.147-15.015-2.129m15.015 2.129 26.01-97.07m-41.025 94.941-15.935-2.259m15.935 2.259 25.17-93.936m-41.105 91.677-13.248-1.879m13.248 1.879 24.573-90.629m-37.82 88.75-11.209-1.589m11.208 1.589 23.538-87.844M3.768 286.745l-7.824-1.11m7.824 1.11L26.68 201.24m-30.735 84.395 22.473-83.871m407.969-25.869-50.912 3.228m0 0-63.194 4.008m63.194-4.008 41.093-153.36M312.28 183.131l-40.194 2.548m40.194-2.548 37.807-141.1M272.086 185.68l-32.602 2.067m32.602-2.067 35.718-133.301m-68.32 135.368-28.136 1.785m28.136-1.785L273.507 60.77m-62.159 128.761-21.466 1.361m21.466-1.361 32.561-121.518m-54.027 122.879-30.563 1.938m30.563-1.938 32.514-117.614M159.319 192.83l-23.223 1.472m23.223-1.472 29.856-111.423m-53.079 112.895-16.971 1.076m16.971-1.076 28.649-106.917m-45.62 107.993-16.97 1.076m16.97-1.076 27.766-103.624m-44.736 104.7-16.971 1.077m16.971-1.077 26.883-100.332M85.184 197.531l-15.855 1.005m15.855-1.005 26.001-97.04m-41.856 98.045-16.532 1.048m16.532-1.048 25.178-93.964m-41.71 95.012-14.283.906m14.283-.906 24.627-90.831m-38.91 91.737-11.835.75m11.835-.75 23.575-87.985M26.68 201.24l-8.262.524m8.262-.524 22.96-85.688m-31.222 86.212 22.53-84.085M470.127 12.657l-53.559 13.106m0 0-66.48 16.268m66.48-16.268L423.431.145m-73.344 41.886-42.283 10.347m42.283-10.347 15.385-57.416m-57.668 67.763-34.297 8.392m34.297-8.392 20.804-77.64M273.507 60.77l-29.598 7.243m29.598-7.243 25.199-94.044M243.909 68.013l-21.513 5.264m21.513-5.264 28.992-108.202M222.396 73.277l-33.221 8.13m33.221-8.13 32.688-118.24-35.949 14.56m-29.96 111.81-24.43 5.978m24.43-5.978 29.96-111.81m-54.39 117.788-17.854 4.369m17.854-4.369 28.782-107.418M146.891 91.754l-17.853 4.368m17.853-4.368 27.923-104.208M129.038 96.123l-17.853 4.368m17.853-4.368L156.101-4.876M111.185 100.49l-16.678 4.081m16.678-4.081 26.202-97.787m-42.88 101.868-17.083 4.181m17.083-4.181 25.398-94.788m-42.481 98.969-15.335 3.752m15.335-3.752 24.903-91.85M62.09 112.505l-12.45 3.047m12.45-3.047 23.836-88.96M49.64 115.553l-8.691 2.127m8.691-2.127 23.237-86.721m-31.928 88.848L63.766 32.52m155.369-62.924-25.608 10.371m25.608-10.37 6.048-22.572m-31.656 32.942-18.713 7.58m18.713-7.58 10.356-38.65m-29.069 46.23-18.713 7.578m18.713-7.579 13.504-50.399M156.101-4.875l-18.714 7.579m18.714-7.58 16.652-62.147M137.387 2.704l-17.482 7.08m17.482-7.08 19.801-73.898M119.905 9.784l-17.578 7.119m17.578-7.12 22.742-84.873-17.448 7.636m-22.872 84.357-16.4 6.643m16.4-6.643 22.872-84.357m-39.273 91-13.05 5.285m13.05-5.285 22.406-83.618M72.876 28.83l-9.11 3.69m9.11-3.69 22.276-83.136M63.766 32.52l22.186-82.798m39.247-17.176-16.867 7.381m16.867-7.381 3.112-11.478m-19.979 18.86-13.18 5.767m13.18-5.767 6.053-22.591M95.152-54.305l-9.2 4.027m9.2-4.027 8.378-31.267M85.952-50.278l10-37.324m196.63 762.863-42.46-28.32m0 0-52.701-35.151m52.701 35.151-48.607 181.406m-4.094-216.557-33.52-22.357m33.52 22.357-53.865 201.027m20.345-223.384-27.189-18.135m27.189 18.135-57.209 213.506m30.02-231.641-23.465-15.65m23.465 15.65L76.791 794.927m36.456-239.279-20.434-13.629m20.434 13.629L50.986 788.012m41.827-245.993-22.956-15.312m22.956 15.312-64.79 234.364m41.834-249.676L50.49 513.79m19.367 12.917L9.552 751.768M50.49 513.79l-14.153-9.44m14.153 9.44L-7.27 729.351M36.337 504.35l-14.153-9.44m14.153 9.44-55.9 208.62m41.747-218.06L8.03 485.47m14.153 9.44-54.04 201.678M8.031 485.47l-13.222-8.819M8.03 485.47l-52.18 194.736M-5.19 476.651l-14.51-9.678m14.51 9.678-50.442 188.251m35.932-197.929-11.19-7.463m11.19 7.463-48.958 180.57M-30.89 459.51l-9.87-6.583m9.87 6.583-47.065 175.647m37.195-182.23-6.863-4.697m6.863 4.697-45.767 170.806M33.168 783.238l-5.144-6.855m0 0L9.552 751.768m18.472 24.615-1.41 5.099M9.552 751.768-7.27 729.351m16.822 22.417-6.285 23.458M-7.27 729.351l-12.293-16.381m12.293 16.381-10.763 40.168m-1.53-56.549-12.293-16.382m12.293 16.382-14.035 52.378m1.742-68.76-12.293-16.382m12.293 16.382-17.307 64.59m5.014-80.972-11.484-15.304m11.484 15.304-20.75 77.445-14.542-3.897m23.808-88.852-13.026-17.359m13.026 17.359-23.808 88.852m10.782-106.211-9.296-12.386m9.296 12.386-23.214 85.616m13.918-98.002-8.572-11.424m8.572 11.424-22.584 84.285m14.012-95.709-5.985-7.975m5.985 7.975-22.181 82.778m16.196-90.753-21.899 81.726m34.97 56.27-12.432-20.595m0 0-8.666-13.717m8.666 13.717-4.19 15.452m-4.476-29.169-8.169-12.931m8.169 12.931-6.992 26.096m-1.177-39.027-5.703-9.027m5.703 9.027-9.678 36.118m3.975-45.145-11.552 43.115" stroke="#fff"/><path transform="rotate(105 471.436 7.769)" fill="url(#d)" d="M471.436 7.769h888.408V398.5H471.436z"/><path transform="rotate(-75 -134.493 759.453)" fill="url(#e)" d="M-134.493 759.453h885.33v390.731h-885.33z"/><path opacity=".5" transform="rotate(-75 -68.142 507.505)" fill="url(#f)" d="M-68.142 507.505h379.8v391.851h-379.8z"/><defs><linearGradient id="b" x1="-127.801" y1="485.753" x2="458.291" y2="128.094" gradientUnits="userSpaceOnUse"><stop stop-color="#480064"/><stop offset=".197" stop-color="#9A00D7"/><stop offset=".678" stop-color="#8B04C1"/><stop offset="1" stop-color="#2B1D31"/></linearGradient><linearGradient id="d" x1="915.639" y1="7.769" x2="915.639" y2="398.5" gradientUnits="userSpaceOnUse"><stop/><stop offset=".433" stop-opacity=".36"/></linearGradient><linearGradient id="e" x1="308.172" y1="759.453" x2="308.172" y2="1150.18" gradientUnits="userSpaceOnUse"><stop/><stop offset=".183" stop-opacity=".36"/></linearGradient><linearGradient id="f" x1="-68.142" y1="703.431" x2="311.657" y2="703.431" gradientUnits="userSpaceOnUse"><stop stop-opacity="0"/><stop offset=".442"/><stop offset=".538"/><stop offset="1" stop-opacity="0"/></linearGradient><filter id="a" x="-128.929" y="-89.861" width="601.292" height="930.44" filterUnits="userSpaceOnUse" color-interpolation-filters="sRGB"><feFlood flood-opacity="0" result="BackgroundImageFix"/><feBlend in="SourceGraphic" in2="BackgroundImageFix" result="shape"/><feGaussianBlur stdDeviation="1" result="effect1_foregroundBlur_78_137"/></filter><filter id="c" x="-127.446" y="-88.731" width="598.691" height="927.949" filterUnits="userSpaceOnUse" color-interpolation-filters="sRGB"><feFlood flood-opacity="0" result="BackgroundImageFix"/><feBlend in="SourceGraphic" in2="BackgroundImageFix" result="shape"/><feGaussianBlur stdDeviation=".5" result="effect1_foregroundBlur_78_137"/></filter></defs></svg>