<svg width="375" height="711" viewBox="0 0 375 711" fill="none" xmlns="http://www.w3.org/2000/svg">
<g filter="url(#filter0_f_78_137)">
<path d="M268.126 852.76L-51.2145 547.864M356.41 523.282L311.114 505.55M311.114 505.55L254.891 483.541M311.114 505.55L269.234 661.846M311.114 505.55L353.198 348.488M254.891 483.541L219.131 469.542M254.891 483.541L293.352 340.002M254.891 483.541L216.533 626.695M219.131 469.542L190.125 458.187M219.131 469.542L183.012 604.338M219.131 469.542L255.287 334.604M190.125 458.187L165.093 448.388M190.125 458.187L224.412 330.226M190.125 458.187L155.824 586.203M165.093 448.388L144.192 440.206M165.093 448.388L132.359 570.553M165.093 448.388L197.767 326.448M144.192 440.206L118.804 430.267M144.192 440.206L176.474 323.429M144.192 440.206L111.925 556.924M118.804 430.267L98.1423 422.179M118.804 430.267L88.969 541.612M118.804 430.267L148.494 319.462M98.1423 422.179L83.0436 416.269M98.1423 422.179L69.6016 528.695M98.1423 422.179L126.501 316.343M83.0436 416.269L67.9448 410.358M83.0436 416.269L110.429 314.064M83.0436 416.269L55.4486 519.255M67.9448 410.358L52.8461 404.447M67.9448 410.358L41.2955 509.815M67.9448 410.358L94.3574 311.785M52.8461 404.447L38.7407 398.926M52.8461 404.447L78.2856 309.506M52.8461 404.447L27.1424 500.375M38.7407 398.926L23.5175 392.966M38.7407 398.926L13.9205 491.556M38.7407 398.926L63.2711 307.377M23.5175 392.966L11.3246 388.193M23.5175 392.966L-0.589358 481.878M23.5175 392.966L47.3361 305.118M11.3246 388.193L0.795252 384.071M11.3246 388.193L34.0881 303.239M11.3246 388.193L-11.7785 474.415M0.795252 384.071L-6.55544 381.194M0.795252 384.071L-21.6484 467.832M0.795252 384.071L22.8801 301.65M-6.55544 381.194L-73.4003 630.662M-6.55544 381.194L15.0556 300.54M401.414 355.325L353.198 348.488M353.198 348.488L293.352 340.002M353.198 348.488L394.586 194.028M293.352 340.002L255.287 334.604M293.352 340.002L331.392 198.035M255.287 334.604L224.412 330.226M255.287 334.604L291.198 200.584M224.412 330.226L197.767 326.448M224.412 330.226L258.596 202.651M197.767 326.448L176.474 323.429M197.767 326.448L230.46 204.435M176.474 323.429L148.494 319.462M176.474 323.429L208.994 205.797M148.494 319.462L126.501 316.343M148.494 319.462L178.431 207.735M126.501 316.343L110.429 314.064M126.501 316.343L155.208 209.207M110.429 314.064L94.3574 311.785M110.429 314.064L138.237 210.283M94.3574 311.785L78.2856 309.506M94.3574 311.785L121.266 211.359M78.2856 309.506L63.2711 307.377M78.2856 309.506L104.296 212.435M63.2711 307.377L47.3361 305.118M63.2711 307.377L88.4413 213.441M47.3361 305.118L34.0881 303.239M47.3361 305.118L71.9084 214.489M34.0881 303.239L22.8801 301.65M34.0881 303.239L57.6259 215.395M22.8801 301.65L15.0556 300.54M22.8801 301.65L45.7909 216.145M15.0556 300.54L37.5288 216.669M445.498 190.8L394.586 194.028M394.586 194.028L331.392 198.035M394.586 194.028L435.678 40.6683M331.392 198.035L291.198 200.584M331.392 198.035L369.199 56.936M291.198 200.584L258.596 202.651M291.198 200.584L326.916 67.2829M258.596 202.651L230.46 204.435M258.596 202.651L292.619 75.6754M230.46 204.435L208.994 205.797M230.46 204.435L263.021 82.9182M208.994 205.797L178.431 207.735M208.994 205.797L241.508 88.1824M178.431 207.735L155.208 209.207M178.431 207.735L208.287 96.3117M155.208 209.207L138.237 210.283M155.208 209.207L183.856 102.29M138.237 210.283L121.266 211.359M138.237 210.283L166.003 106.659M121.266 211.359L104.296 212.435M121.266 211.359L148.15 111.027M104.296 212.435L88.4413 213.441M104.296 212.435L130.297 115.396M88.4413 213.441L71.9084 214.489M88.4413 213.441L113.619 119.477M71.9084 214.489L57.6259 215.395M71.9084 214.489L96.5358 123.658M57.6259 215.395L45.7909 216.145M57.6259 215.395L81.2013 127.41M45.7909 216.145L37.5288 216.669M45.7909 216.145L68.7511 130.457M37.5288 216.669L60.0595 132.583M489.238 27.5622L435.678 40.6683M435.678 40.6683L369.199 56.936M435.678 40.6683L442.543 15.0504M369.199 56.936L326.916 67.2829M369.199 56.936L384.584 -0.47967M326.916 67.2829L292.619 75.6754M326.916 67.2829L347.719 -10.3574M292.619 75.6754L263.021 82.9182M292.619 75.6754L317.818 -18.3694M263.021 82.9182L241.508 88.1824M263.021 82.9182L292.013 -25.2839M241.508 88.1824L208.287 96.3117M241.508 88.1824L274.195 -30.0581L238.246 -15.4988M208.287 96.3117L183.856 102.29M208.287 96.3117L238.246 -15.4988M183.856 102.29L166.003 106.659M183.856 102.29L212.639 -5.12782M166.003 106.659L148.15 111.027M166.003 106.659L193.926 2.45096M148.15 111.027L130.297 115.396M148.15 111.027L175.212 10.0298M130.297 115.396L113.619 119.477M130.297 115.396L156.499 17.6086M113.619 119.477L96.5358 123.658M113.619 119.477L139.017 24.6888M96.5358 123.658L81.2013 127.41M96.5358 123.658L121.439 31.8079M81.2013 127.41L68.7511 130.457M81.2013 127.41L105.038 38.4504M68.7511 130.457L60.0595 132.583M68.7511 130.457L91.988 43.7355M60.0595 132.583L82.8776 47.4252M238.246 -15.4988L212.639 -5.12782M238.246 -15.4988L244.294 -38.0701M212.639 -5.12782L193.926 2.45096M212.639 -5.12782L222.995 -43.7772M193.926 2.45096L175.212 10.0298M193.926 2.45096L207.43 -47.9479M175.212 10.0298L156.499 17.6086M175.212 10.0298L191.865 -52.1185M156.499 17.6086L139.017 24.6888M156.499 17.6086L176.3 -56.2891M139.017 24.6888L121.439 31.8079M139.017 24.6888L161.759 -60.1853L144.311 -52.5495M121.439 31.8079L105.038 38.4504M121.439 31.8079L144.311 -52.5495M105.038 38.4504L91.988 43.7355M105.038 38.4504L127.443 -45.1676M91.988 43.7355L82.8776 47.4252M91.988 43.7355L114.264 -39.3999M82.8776 47.4252L105.063 -35.3734M144.311 -52.5495L127.443 -45.1676M144.311 -52.5495L147.423 -64.0267M127.443 -45.1676L114.264 -39.3999M127.443 -45.1676L133.496 -67.7583M114.264 -39.3999L105.063 -35.3734M114.264 -39.3999L122.642 -70.6667M105.063 -35.3734L115.064 -72.6972M311.693 690.166L269.234 661.846M269.234 661.846L216.533 626.695M269.234 661.846L220.627 843.252M216.533 626.695L183.012 604.338M216.533 626.695L162.668 827.721M183.012 604.338L155.824 586.203M183.012 604.338L125.804 817.844M155.824 586.203L132.359 570.553M155.824 586.203L95.9025 809.832M132.359 570.553L111.925 556.924M132.359 570.553L70.0974 802.917M111.925 556.924L88.969 541.612M111.925 556.924L47.1356 791.288M88.969 541.612L69.6016 528.695M88.969 541.612L28.6641 766.673M69.6016 528.695L55.4486 519.255M69.6016 528.695L11.8421 744.256M55.4486 519.255L41.2955 509.815M55.4486 519.255L-0.450942 727.874M41.2955 509.815L27.1424 500.375M41.2955 509.815L-12.744 711.493M27.1424 500.375L13.9205 491.556M27.1424 500.375L-25.037 695.111M13.9205 491.556L-0.589358 481.878M13.9205 491.556L-36.5213 679.807M-0.589358 481.878L-11.7785 474.415M-0.589358 481.878L-49.5477 662.448M-11.7785 474.415L-21.6484 467.832M-11.7785 474.415L-58.8428 650.062M-21.6484 467.832L-28.5114 463.135M-21.6484 467.832L-67.4156 638.638M52.2796 798.143L47.1356 791.288M47.1356 791.288L28.6641 766.673M47.1356 791.288L45.726 796.387M28.6641 766.673L11.8421 744.256M28.6641 766.673L22.3786 790.131M11.8421 744.256L-0.450942 727.874M11.8421 744.256L1.07915 784.424M-0.450942 727.874L-12.744 711.493M-0.450942 727.874L-14.4858 780.253M-12.744 711.493L-25.037 695.111M-12.744 711.493L-30.0508 776.083M-25.037 695.111L-36.5213 679.807M-25.037 695.111L-45.7881 772.556L-60.3291 768.659M-36.5213 679.807L-49.5477 662.448M-36.5213 679.807L-60.3291 768.659M-49.5477 662.448L-58.8428 650.062M-49.5477 662.448L-72.7609 748.064M-58.8428 650.062L-67.4156 638.638M-58.8428 650.062L-81.4269 734.347M-67.4156 638.638L-73.4003 630.662M-67.4156 638.638L-89.5959 721.416M-73.4003 630.662L-95.2988 712.389M-60.3291 768.659L-72.7609 748.064M-72.7609 748.064L-81.4269 734.347M-72.7609 748.064L-76.9504 763.516M-81.4269 734.347L-89.5959 721.416M-81.4269 734.347L-88.4193 760.443M-89.5959 721.416L-95.2988 712.389M-89.5959 721.416L-99.2738 757.534M-95.2988 712.389L-106.851 755.504" stroke="url(#paint0_linear_78_137)" stroke-width="2"/>
</g>
<g opacity="0.35" filter="url(#filter1_f_78_137)">
<path d="M268.126 852.76L-51.2145 547.864M356.41 523.282L311.114 505.55M311.114 505.55L254.891 483.541M311.114 505.55L269.234 661.846M311.114 505.55L353.198 348.488M254.891 483.541L219.131 469.542M254.891 483.541L293.352 340.002M254.891 483.541L216.533 626.695M219.131 469.542L190.125 458.187M219.131 469.542L183.012 604.338M219.131 469.542L255.287 334.604M190.125 458.187L165.093 448.388M190.125 458.187L224.412 330.226M190.125 458.187L155.824 586.203M165.093 448.388L144.192 440.206M165.093 448.388L132.359 570.553M165.093 448.388L197.767 326.448M144.192 440.206L118.804 430.267M144.192 440.206L176.474 323.429M144.192 440.206L111.925 556.924M118.804 430.267L98.1423 422.179M118.804 430.267L88.969 541.612M118.804 430.267L148.494 319.462M98.1423 422.179L83.0436 416.269M98.1423 422.179L69.6016 528.695M98.1423 422.179L126.501 316.343M83.0436 416.269L67.9448 410.358M83.0436 416.269L110.429 314.064M83.0436 416.269L55.4486 519.255M67.9448 410.358L52.8461 404.447M67.9448 410.358L41.2955 509.815M67.9448 410.358L94.3574 311.785M52.8461 404.447L38.7407 398.926M52.8461 404.447L78.2856 309.506M52.8461 404.447L27.1425 500.375M38.7407 398.926L23.5175 392.966M38.7407 398.926L13.9205 491.556M38.7407 398.926L63.2711 307.377M23.5175 392.966L11.3246 388.193M23.5175 392.966L-0.589358 481.878M23.5175 392.966L47.3361 305.118M11.3246 388.193L0.795253 384.071M11.3246 388.193L34.0881 303.239M11.3246 388.193L-11.7785 474.415M0.795253 384.071L-6.55544 381.194M0.795253 384.071L-21.6484 467.832M0.795253 384.071L22.8801 301.65M-6.55544 381.194L-73.4003 630.662M-6.55544 381.194L15.0556 300.54M401.414 355.325L353.198 348.488M353.198 348.488L293.352 340.002M353.198 348.488L394.586 194.028M293.352 340.002L255.287 334.604M293.352 340.002L331.392 198.035M255.287 334.604L224.412 330.226M255.287 334.604L291.198 200.584M224.412 330.226L197.767 326.448M224.412 330.226L258.596 202.651M197.767 326.448L176.474 323.429M197.767 326.448L230.46 204.435M176.474 323.429L148.494 319.462M176.474 323.429L208.994 205.797M148.494 319.462L126.501 316.343M148.494 319.462L178.431 207.735M126.501 316.343L110.429 314.064M126.501 316.343L155.208 209.207M110.429 314.064L94.3574 311.785M110.429 314.064L138.237 210.283M94.3574 311.785L78.2856 309.506M94.3574 311.785L121.266 211.359M78.2856 309.506L63.2711 307.377M78.2856 309.506L104.296 212.435M63.2711 307.377L47.3361 305.118M63.2711 307.377L88.4413 213.441M47.3361 305.118L34.0881 303.239M47.3361 305.118L71.9084 214.489M34.0881 303.239L22.8801 301.65M34.0881 303.239L57.6259 215.395M22.8801 301.65L15.0556 300.54M22.8801 301.65L45.7909 216.145M15.0556 300.54L37.5288 216.669M445.498 190.8L394.586 194.028M394.586 194.028L331.392 198.035M394.586 194.028L435.678 40.6683M331.392 198.035L291.198 200.584M331.392 198.035L369.199 56.936M291.198 200.584L258.596 202.651M291.198 200.584L326.916 67.2829M258.596 202.651L230.46 204.435M258.596 202.651L292.619 75.6754M230.46 204.435L208.994 205.797M230.46 204.435L263.021 82.9182M208.994 205.797L178.431 207.735M208.994 205.797L241.508 88.1824M178.431 207.735L155.208 209.207M178.431 207.735L208.287 96.3117M155.208 209.207L138.237 210.283M155.208 209.207L183.856 102.29M138.237 210.283L121.266 211.359M138.237 210.283L166.003 106.659M121.266 211.359L104.296 212.435M121.266 211.359L148.15 111.027M104.296 212.435L88.4413 213.441M104.296 212.435L130.297 115.396M88.4413 213.441L71.9084 214.489M88.4413 213.441L113.619 119.477M71.9084 214.489L57.6259 215.395M71.9084 214.489L96.5358 123.658M57.6259 215.395L45.7909 216.145M57.6259 215.395L81.2013 127.41M45.7909 216.145L37.5288 216.669M45.7909 216.145L68.7511 130.457M37.5288 216.669L60.0595 132.583M489.238 27.5622L435.678 40.6683M435.678 40.6683L369.199 56.936M435.678 40.6683L442.543 15.0504M369.199 56.936L326.916 67.2829M369.199 56.936L384.584 -0.479667M326.916 67.2829L292.619 75.6754M326.916 67.2829L347.719 -10.3574M292.619 75.6754L263.021 82.9182M292.619 75.6754L317.818 -18.3694M263.021 82.9182L241.508 88.1824M263.021 82.9182L292.013 -25.2839M241.508 88.1824L208.287 96.3117M241.508 88.1824L274.195 -30.0581L238.246 -15.4988M208.287 96.3117L183.856 102.29M208.287 96.3117L238.246 -15.4988M183.856 102.29L166.003 106.659M183.856 102.29L212.639 -5.12782M166.003 106.659L148.15 111.027M166.003 106.659L193.926 2.45096M148.15 111.027L130.297 115.396M148.15 111.027L175.212 10.0298M130.297 115.396L113.619 119.477M130.297 115.396L156.499 17.6086M113.619 119.477L96.5358 123.658M113.619 119.477L139.017 24.6888M96.5358 123.658L81.2013 127.41M96.5358 123.658L121.439 31.8079M81.2013 127.41L68.7511 130.457M81.2013 127.41L105.038 38.4504M68.7511 130.457L60.0595 132.583M68.7511 130.457L91.988 43.7355M60.0595 132.583L82.8776 47.4252M238.246 -15.4988L212.639 -5.12782M238.246 -15.4988L244.294 -38.0701M212.639 -5.12782L193.926 2.45096M212.639 -5.12782L222.995 -43.7772M193.926 2.45096L175.212 10.0298M193.926 2.45096L207.43 -47.9479M175.212 10.0298L156.499 17.6086M175.212 10.0298L191.865 -52.1185M156.499 17.6086L139.017 24.6888M156.499 17.6086L176.3 -56.2891M139.017 24.6888L121.439 31.8079M139.017 24.6888L161.759 -60.1853L144.311 -52.5495M121.439 31.8079L105.038 38.4504M121.439 31.8079L144.311 -52.5495M105.038 38.4504L91.988 43.7355M105.038 38.4504L127.443 -45.1676M91.988 43.7355L82.8776 47.4252M91.988 43.7355L114.264 -39.3999M82.8776 47.4252L105.063 -35.3734M144.311 -52.5495L127.443 -45.1676M144.311 -52.5495L147.423 -64.0267M127.443 -45.1676L114.264 -39.3999M127.443 -45.1676L133.496 -67.7583M114.264 -39.3999L105.063 -35.3734M114.264 -39.3999L122.642 -70.6667M105.063 -35.3734L115.064 -72.6972M311.693 690.166L269.234 661.846M269.234 661.846L216.533 626.695M269.234 661.846L220.627 843.252M216.533 626.695L183.012 604.338M216.533 626.695L162.668 827.721M183.012 604.338L155.824 586.203M183.012 604.338L125.804 817.844M155.824 586.203L132.359 570.553M155.824 586.203L95.9025 809.832M132.359 570.553L111.925 556.924M132.359 570.553L70.0974 802.917M111.925 556.924L88.969 541.612M111.925 556.924L47.1356 791.288M88.969 541.612L69.6016 528.695M88.969 541.612L28.6641 766.673M69.6016 528.695L55.4486 519.255M69.6016 528.695L11.8421 744.256M55.4486 519.255L41.2955 509.815M55.4486 519.255L-0.450938 727.874M41.2955 509.815L27.1425 500.375M41.2955 509.815L-12.744 711.493M27.1425 500.375L13.9205 491.556M27.1425 500.375L-25.037 695.111M13.9205 491.556L-0.589358 481.878M13.9205 491.556L-36.5213 679.807M-0.589358 481.878L-11.7785 474.415M-0.589358 481.878L-49.5477 662.448M-11.7785 474.415L-21.6484 467.832M-11.7785 474.415L-58.8428 650.062M-21.6484 467.832L-28.5114 463.135M-21.6484 467.832L-67.4156 638.638M52.2797 798.143L47.1356 791.288M47.1356 791.288L28.6641 766.673M47.1356 791.288L45.726 796.387M28.6641 766.673L11.8421 744.256M28.6641 766.673L22.3786 790.131M11.8421 744.256L-0.450938 727.874M11.8421 744.256L1.07915 784.424M-0.450938 727.874L-12.744 711.493M-0.450938 727.874L-14.4858 780.253M-12.744 711.493L-25.037 695.111M-12.744 711.493L-30.0507 776.083M-25.037 695.111L-36.5213 679.807M-25.037 695.111L-45.7881 772.556L-60.3291 768.659M-36.5213 679.807L-49.5477 662.448M-36.5213 679.807L-60.3291 768.659M-49.5477 662.448L-58.8428 650.062M-49.5477 662.448L-72.7609 748.064M-58.8428 650.062L-67.4156 638.638M-58.8428 650.062L-81.4269 734.347M-67.4156 638.638L-73.4003 630.662M-67.4156 638.638L-89.5959 721.416M-73.4003 630.662L-95.2988 712.389M-60.3291 768.659L-72.7609 748.064M-72.7609 748.064L-81.4269 734.347M-72.7609 748.064L-76.9504 763.516M-81.4269 734.347L-89.5959 721.416M-81.4269 734.347L-88.4193 760.443M-89.5959 721.416L-95.2988 712.389M-89.5959 721.416L-99.2738 757.534M-95.2988 712.389L-106.851 755.504" stroke="white"/>
</g>
<path opacity="0.2" d="M268.126 852.76L-51.2145 547.864M356.41 523.282L311.114 505.55M311.114 505.55L254.891 483.541M311.114 505.55L269.234 661.846M311.114 505.55L353.198 348.488M254.891 483.541L219.131 469.542M254.891 483.541L293.352 340.002M254.891 483.541L216.533 626.695M219.131 469.542L190.125 458.187M219.131 469.542L183.012 604.338M219.131 469.542L255.287 334.604M190.125 458.187L165.093 448.388M190.125 458.187L224.412 330.226M190.125 458.187L155.824 586.203M165.093 448.388L144.192 440.206M165.093 448.388L132.359 570.553M165.093 448.388L197.767 326.448M144.192 440.206L118.804 430.267M144.192 440.206L176.474 323.429M144.192 440.206L111.925 556.924M118.804 430.267L98.1423 422.179M118.804 430.267L88.969 541.612M118.804 430.267L148.494 319.462M98.1423 422.179L83.0436 416.269M98.1423 422.179L69.6016 528.695M98.1423 422.179L126.501 316.343M83.0436 416.269L67.9448 410.358M83.0436 416.269L110.429 314.064M83.0436 416.269L55.4486 519.255M67.9448 410.358L52.8461 404.447M67.9448 410.358L41.2955 509.815M67.9448 410.358L94.3574 311.785M52.8461 404.447L38.7407 398.926M52.8461 404.447L78.2856 309.506M52.8461 404.447L27.1425 500.375M38.7407 398.926L23.5175 392.966M38.7407 398.926L13.9205 491.556M38.7407 398.926L63.2711 307.377M23.5175 392.966L11.3246 388.193M23.5175 392.966L-0.589358 481.878M23.5175 392.966L47.3361 305.118M11.3246 388.193L0.795253 384.071M11.3246 388.193L34.0881 303.239M11.3246 388.193L-11.7785 474.415M0.795253 384.071L-6.55544 381.194M0.795253 384.071L-21.6484 467.832M0.795253 384.071L22.8801 301.65M-6.55544 381.194L-73.4003 630.662M-6.55544 381.194L15.0556 300.54M401.414 355.325L353.198 348.488M353.198 348.488L293.352 340.002M353.198 348.488L394.586 194.028M293.352 340.002L255.287 334.604M293.352 340.002L331.392 198.035M255.287 334.604L224.412 330.226M255.287 334.604L291.198 200.584M224.412 330.226L197.767 326.448M224.412 330.226L258.596 202.651M197.767 326.448L176.474 323.429M197.767 326.448L230.46 204.435M176.474 323.429L148.494 319.462M176.474 323.429L208.994 205.797M148.494 319.462L126.501 316.343M148.494 319.462L178.431 207.735M126.501 316.343L110.429 314.064M126.501 316.343L155.208 209.207M110.429 314.064L94.3574 311.785M110.429 314.064L138.237 210.283M94.3574 311.785L78.2856 309.506M94.3574 311.785L121.266 211.359M78.2856 309.506L63.2711 307.377M78.2856 309.506L104.296 212.435M63.2711 307.377L47.3361 305.118M63.2711 307.377L88.4413 213.441M47.3361 305.118L34.0881 303.239M47.3361 305.118L71.9084 214.489M34.0881 303.239L22.8801 301.65M34.0881 303.239L57.6259 215.395M22.8801 301.65L15.0556 300.54M22.8801 301.65L45.7909 216.145M15.0556 300.54L37.5288 216.669M445.498 190.8L394.586 194.028M394.586 194.028L331.392 198.035M394.586 194.028L435.678 40.6683M331.392 198.035L291.198 200.584M331.392 198.035L369.199 56.936M291.198 200.584L258.596 202.651M291.198 200.584L326.916 67.2829M258.596 202.651L230.46 204.435M258.596 202.651L292.619 75.6754M230.46 204.435L208.994 205.797M230.46 204.435L263.021 82.9182M208.994 205.797L178.431 207.735M208.994 205.797L241.508 88.1824M178.431 207.735L155.208 209.207M178.431 207.735L208.287 96.3117M155.208 209.207L138.237 210.283M155.208 209.207L183.856 102.29M138.237 210.283L121.266 211.359M138.237 210.283L166.003 106.659M121.266 211.359L104.296 212.435M121.266 211.359L148.15 111.027M104.296 212.435L88.4413 213.441M104.296 212.435L130.297 115.396M88.4413 213.441L71.9084 214.489M88.4413 213.441L113.619 119.477M71.9084 214.489L57.6259 215.395M71.9084 214.489L96.5358 123.658M57.6259 215.395L45.7909 216.145M57.6259 215.395L81.2013 127.41M45.7909 216.145L37.5288 216.669M45.7909 216.145L68.7511 130.457M37.5288 216.669L60.0595 132.583M489.238 27.5622L435.678 40.6683M435.678 40.6683L369.199 56.936M435.678 40.6683L442.543 15.0504M369.199 56.936L326.916 67.2829M369.199 56.936L384.584 -0.479667M326.916 67.2829L292.619 75.6754M326.916 67.2829L347.719 -10.3574M292.619 75.6754L263.021 82.9182M292.619 75.6754L317.818 -18.3694M263.021 82.9182L241.508 88.1824M263.021 82.9182L292.013 -25.2839M241.508 88.1824L208.287 96.3117M241.508 88.1824L274.195 -30.0581L238.246 -15.4988M208.287 96.3117L183.856 102.29M208.287 96.3117L238.246 -15.4988M183.856 102.29L166.003 106.659M183.856 102.29L212.639 -5.12782M166.003 106.659L148.15 111.027M166.003 106.659L193.926 2.45096M148.15 111.027L130.297 115.396M148.15 111.027L175.212 10.0298M130.297 115.396L113.619 119.477M130.297 115.396L156.499 17.6086M113.619 119.477L96.5358 123.658M113.619 119.477L139.017 24.6888M96.5358 123.658L81.2013 127.41M96.5358 123.658L121.439 31.8079M81.2013 127.41L68.7511 130.457M81.2013 127.41L105.038 38.4504M68.7511 130.457L60.0595 132.583M68.7511 130.457L91.988 43.7355M60.0595 132.583L82.8776 47.4252M238.246 -15.4988L212.639 -5.12782M238.246 -15.4988L244.294 -38.0701M212.639 -5.12782L193.926 2.45096M212.639 -5.12782L222.995 -43.7772M193.926 2.45096L175.212 10.0298M193.926 2.45096L207.43 -47.9479M175.212 10.0298L156.499 17.6086M175.212 10.0298L191.865 -52.1185M156.499 17.6086L139.017 24.6888M156.499 17.6086L176.3 -56.2891M139.017 24.6888L121.439 31.8079M139.017 24.6888L161.759 -60.1853L144.311 -52.5495M121.439 31.8079L105.038 38.4504M121.439 31.8079L144.311 -52.5495M105.038 38.4504L91.988 43.7355M105.038 38.4504L127.443 -45.1676M91.988 43.7355L82.8776 47.4252M91.988 43.7355L114.264 -39.3999M82.8776 47.4252L105.063 -35.3734M144.311 -52.5495L127.443 -45.1676M144.311 -52.5495L147.423 -64.0267M127.443 -45.1676L114.264 -39.3999M127.443 -45.1676L133.496 -67.7583M114.264 -39.3999L105.063 -35.3734M114.264 -39.3999L122.642 -70.6667M105.063 -35.3734L115.064 -72.6972M311.693 690.166L269.234 661.846M269.234 661.846L216.533 626.695M269.234 661.846L220.627 843.252M216.533 626.695L183.012 604.338M216.533 626.695L162.668 827.721M183.012 604.338L155.824 586.203M183.012 604.338L125.804 817.844M155.824 586.203L132.359 570.553M155.824 586.203L95.9025 809.832M132.359 570.553L111.925 556.924M132.359 570.553L70.0974 802.917M111.925 556.924L88.969 541.612M111.925 556.924L47.1356 791.288M88.969 541.612L69.6016 528.695M88.969 541.612L28.6641 766.673M69.6016 528.695L55.4486 519.255M69.6016 528.695L11.8421 744.256M55.4486 519.255L41.2955 509.815M55.4486 519.255L-0.450938 727.874M41.2955 509.815L27.1425 500.375M41.2955 509.815L-12.744 711.493M27.1425 500.375L13.9205 491.556M27.1425 500.375L-25.037 695.111M13.9205 491.556L-0.589358 481.878M13.9205 491.556L-36.5213 679.807M-0.589358 481.878L-11.7785 474.415M-0.589358 481.878L-49.5477 662.448M-11.7785 474.415L-21.6484 467.832M-11.7785 474.415L-58.8428 650.062M-21.6484 467.832L-28.5114 463.135M-21.6484 467.832L-67.4156 638.638M52.2797 798.143L47.1356 791.288M47.1356 791.288L28.6641 766.673M47.1356 791.288L45.726 796.387M28.6641 766.673L11.8421 744.256M28.6641 766.673L22.3786 790.131M11.8421 744.256L-0.450938 727.874M11.8421 744.256L1.07915 784.424M-0.450938 727.874L-12.744 711.493M-0.450938 727.874L-14.4858 780.253M-12.744 711.493L-25.037 695.111M-12.744 711.493L-30.0507 776.083M-25.037 695.111L-36.5213 679.807M-25.037 695.111L-45.7881 772.556L-60.3291 768.659M-36.5213 679.807L-49.5477 662.448M-36.5213 679.807L-60.3291 768.659M-49.5477 662.448L-58.8428 650.062M-49.5477 662.448L-72.7609 748.064M-58.8428 650.062L-67.4156 638.638M-58.8428 650.062L-81.4269 734.347M-67.4156 638.638L-73.4003 630.662M-67.4156 638.638L-89.5959 721.416M-73.4003 630.662L-95.2988 712.389M-60.3291 768.659L-72.7609 748.064M-72.7609 748.064L-81.4269 734.347M-72.7609 748.064L-76.9504 763.516M-81.4269 734.347L-89.5959 721.416M-81.4269 734.347L-88.4193 760.443M-89.5959 721.416L-95.2988 712.389M-89.5959 721.416L-99.2738 757.534M-95.2988 712.389L-106.851 755.504" stroke="white"/>
<rect x="488.844" y="29.0294" width="792.009" height="390.731" transform="rotate(105 488.844 29.0294)" fill="url(#paint1_linear_78_137)"/>
<rect x="-93.5605" y="692.922" width="792.009" height="390.731" transform="rotate(-75 -93.5605 692.922)" fill="url(#paint2_linear_78_137)"/>
<rect opacity="0.5" x="-49.0303" y="522.41" width="379.8" height="391.851" transform="rotate(-75 -49.0303 522.41)" fill="url(#paint3_linear_78_137)"/>
<defs>
<filter id="filter0_f_78_137" x="-109.817" y="-74.956" width="601.292" height="930.44" filterUnits="userSpaceOnUse" color-interpolation-filters="sRGB">
<feFlood flood-opacity="0" result="BackgroundImageFix"/>
<feBlend mode="normal" in="SourceGraphic" in2="BackgroundImageFix" result="shape"/>
<feGaussianBlur stdDeviation="1" result="effect1_foregroundBlur_78_137"/>
</filter>
<filter id="filter1_f_78_137" x="-108.334" y="-73.8266" width="598.691" height="927.949" filterUnits="userSpaceOnUse" color-interpolation-filters="sRGB">
<feFlood flood-opacity="0" result="BackgroundImageFix"/>
<feBlend mode="normal" in="SourceGraphic" in2="BackgroundImageFix" result="shape"/>
<feGaussianBlur stdDeviation="0.5" result="effect1_foregroundBlur_78_137"/>
</filter>
<linearGradient id="paint0_linear_78_137" x1="-108.689" y1="500.658" x2="477.403" y2="142.999" gradientUnits="userSpaceOnUse">
<stop stop-color="#480064"/>
<stop offset="0.197115" stop-color="#9A00D7"/>
<stop offset="0.677885" stop-color="#8B04C1"/>
<stop offset="1" stop-color="#2B1D31"/>
</linearGradient>
<linearGradient id="paint1_linear_78_137" x1="884.849" y1="29.0294" x2="884.849" y2="419.761" gradientUnits="userSpaceOnUse">
<stop/>
<stop offset="0.432692" stop-opacity="0.36"/>
</linearGradient>
<linearGradient id="paint2_linear_78_137" x1="302.444" y1="692.922" x2="302.444" y2="1083.65" gradientUnits="userSpaceOnUse">
<stop/>
<stop offset="0.182692" stop-opacity="0.36"/>
</linearGradient>
<linearGradient id="paint3_linear_78_137" x1="-49.0303" y1="718.336" x2="330.769" y2="718.336" gradientUnits="userSpaceOnUse">
<stop stop-opacity="0"/>
<stop offset="0.442308"/>
<stop offset="0.538462"/>
<stop offset="1" stop-opacity="0"/>
</linearGradient>
</defs>
</svg>
