<svg width="1920" height="793" viewBox="0 0 1920 793" fill="none" xmlns="http://www.w3.org/2000/svg">
<path d="M2 791L479 2M770 791L782.167 692.537M782.167 692.537L797.27 570.322M782.167 692.537H417.847M782.167 692.537H1148.27M797.27 570.322L806.876 492.588M797.27 570.322H1131.85M797.27 570.322H463.583M806.876 492.588L814.667 429.537M806.876 492.588H492.673M806.876 492.588H1121.41M814.667 429.537L821.392 375.123M814.667 429.537H1112.94M814.667 429.537H516.268M821.392 375.123L827.006 329.688M821.392 375.123H536.631M821.392 375.123H1105.63M827.006 329.688L833.826 274.501M827.006 329.688L1099.79 331.641M827.006 329.688L554.364 327.736M833.826 274.501L839.376 229.588M833.826 274.501H574.286M833.826 274.501H1092.11M839.376 229.588L843.432 196.767M839.376 229.588H591.094M839.376 229.588H1086.08M843.432 196.767L847.488 163.946M843.432 196.767H1081.67M843.432 196.767H603.376M847.488 163.946L851.544 131.125M847.488 163.946H615.659M847.488 163.946H1077.26M851.544 131.125L855.333 100.463M851.544 131.125H1072.85M851.544 131.125H627.941M855.333 100.463L859.422 67.3714M855.333 100.463H639.415M855.333 100.463H1068.73M859.422 67.3714L862.697 40.867M859.422 67.3714L652.007 66.8146M859.422 67.3714L1064.36 67.9215M862.697 40.867L865.525 17.9787M862.697 40.867H1060.72M862.697 40.867H661.718M865.525 17.9787L867.5 2M865.525 17.9787H670.283M865.525 17.9787H1057.65M867.5 2H286M867.5 2H1055.5M1161.5 791L1148.27 692.537M1148.27 692.537L1131.85 570.322M1148.27 692.537H1508.31M1131.85 570.322L1121.41 492.588M1131.85 570.322H1462.77M1121.41 492.588L1112.94 429.537M1121.41 492.588H1433.8M1112.94 429.537L1105.63 375.123M1112.94 429.537H1410.31M1105.63 375.123L1099.79 331.641M1105.63 375.123H1390.03M1099.79 331.641L1092.11 274.501M1099.79 331.641L1374.56 333.608M1092.11 274.501L1086.08 229.588M1092.11 274.501H1352.54M1086.08 229.588L1081.67 196.767M1086.08 229.588H1335.8M1081.67 196.767L1077.26 163.946M1081.67 196.767H1323.57M1077.26 163.946L1072.85 131.125M1077.26 163.946H1311.34M1072.85 131.125L1068.73 100.463M1072.85 131.125H1299.11M1068.73 100.463L1064.36 67.9215M1068.73 100.463H1287.69M1064.36 67.9215L1060.72 40.867M1064.36 67.9215L1275.78 68.489M1060.72 40.867L1057.65 17.9787M1060.72 40.867H1265.48M1057.65 17.9787L1055.5 2M1057.65 17.9787H1256.95M1055.5 2H1251M1545 791L1508.31 692.537M1508.31 692.537L1462.77 570.322M1508.31 692.537H1865.79M1462.77 570.322L1433.8 492.588M1462.77 570.322H1791.67M1433.8 492.588L1410.31 429.537M1433.8 492.588H1744.52M1410.31 429.537L1390.03 375.123M1410.31 429.537H1706.29M1390.03 375.123L1374.56 333.608M1390.03 375.123H1673.29M1374.56 333.608L1352.54 274.501M1374.56 333.608L1649.3 335.575M1352.54 274.501L1335.8 229.588M1352.54 274.501H1612.26M1335.8 229.588L1323.57 196.767M1335.8 229.588H1585.02M1323.57 196.767L1311.34 163.946M1323.57 196.767H1565.12M1311.34 163.946L1299.11 131.125M1311.34 163.946H1545.21M1299.11 131.125L1287.69 100.463M1299.11 131.125H1525.31M1287.69 100.463L1275.78 68.489M1287.69 100.463H1506.71M1275.78 68.489L1265.48 40.867M1275.78 68.489L1487.67 69.0578M1265.48 40.867L1256.95 17.9787M1265.48 40.867H1470.57M1256.95 17.9787L1251 2M1256.95 17.9787H1456.69M1251 2H1447M1925.5 791L1865.79 692.537M1865.79 692.537L1791.67 570.322M1865.79 692.537H1925.5M1791.67 570.322L1744.52 492.588M1791.67 570.322H1925.5M1744.52 492.588L1706.29 429.537M1744.52 492.588H1925.5M1706.29 429.537L1673.29 375.123M1706.29 429.537H1925.5M1673.29 375.123L1649.3 335.575M1673.29 375.123H1925.5M1649.3 335.575L1612.26 274.501M1649.3 335.575L1925.5 337.552L1872.89 274.501M1612.26 274.501L1585.02 229.588M1612.26 274.501H1872.89M1585.02 229.588L1565.12 196.767M1585.02 229.588H1835.41M1565.12 196.767L1545.21 163.946M1565.12 196.767H1808.02M1545.21 163.946L1525.31 131.125M1545.21 163.946H1780.64M1525.31 131.125L1506.71 100.463M1525.31 131.125H1753.25M1506.71 100.463L1487.67 69.0578M1506.71 100.463H1727.66M1487.67 69.0578L1470.57 40.867M1487.67 69.0578L1701.94 69.633M1470.57 40.867L1456.69 17.9787M1470.57 40.867H1677.93M1456.69 17.9787L1447 2M1456.69 17.9787H1658.83M1447 2H1645.5M1872.89 274.501L1835.41 229.588M1872.89 274.501H1925.5M1835.41 229.588L1808.02 196.767M1835.41 229.588H1925.5M1808.02 196.767L1780.64 163.946M1808.02 196.767H1925.5M1780.64 163.946L1753.25 131.125M1780.64 163.946H1925.5M1753.25 131.125L1727.66 100.463M1753.25 131.125H1925.5M1727.66 100.463L1701.94 69.633M1727.66 100.463H1925.5L1898.73 70.1613M1701.94 69.633L1677.93 40.867M1701.94 69.633L1898.73 70.1613M1677.93 40.867L1658.83 17.9787M1677.93 40.867H1872.84M1658.83 17.9787L1645.5 2M1658.83 17.9787H1852.62M1645.5 2H1838.5M1898.73 70.1613L1872.84 40.867M1898.73 70.1613L1925.5 70.2332M1872.84 40.867L1852.62 17.9787M1872.84 40.867H1925.5M1852.62 17.9787L1838.5 2M1852.62 17.9787H1925.5M1838.5 2H1925.5M381 791L417.847 692.537M417.847 692.537L463.583 570.322M417.847 692.537H-5M463.583 570.322L492.673 492.588M463.583 570.322H-5M492.673 492.588L516.268 429.537M492.673 492.588H-5M516.268 429.537L536.631 375.123M516.268 429.537H-5M536.631 375.123L554.364 327.736M536.631 375.123H-5M554.364 327.736L574.286 274.501M554.364 327.736L6.91061 323.818M574.286 274.501L591.094 229.588M574.286 274.501H49.6795M591.094 229.588L603.376 196.767M591.094 229.588H88.6293M603.376 196.767L615.659 163.946M603.376 196.767H117.093M615.659 163.946L627.941 131.125M615.659 163.946H145.556M627.941 131.125L639.415 100.463M627.941 131.125H174.019M639.415 100.463L652.007 66.8146M639.415 100.463H200.61M652.007 66.8146L661.718 40.867M652.007 66.8146L230.772 65.6838M661.718 40.867L670.283 17.9787M661.718 40.867H252.293M670.283 17.9787L676.5 2M670.283 17.9787H272.143M-5 337.552L6.91061 323.818M6.91061 323.818L49.6795 274.501M6.91061 323.818L-5 323.732M49.6795 274.501L88.6293 229.588M49.6795 274.501H-5M88.6293 229.588L117.093 196.767M88.6293 229.588H-5M117.093 196.767L145.556 163.946M117.093 196.767H-5M145.556 163.946L174.019 131.125M145.556 163.946H-5M174.019 131.125L200.61 100.463M174.019 131.125H-6.5V100.463M200.61 100.463L230.772 65.6838M200.61 100.463H-6.5M230.772 65.6838L252.293 40.867M230.772 65.6838L31.046 65.1477M252.293 40.867L272.143 17.9787M252.293 40.867H55.8289M272.143 17.9787L286 2M272.143 17.9787H79.1908M286 2H95.5M-6.5 100.463L31.046 65.1477M31.046 65.1477L55.8289 40.867M31.046 65.1477L-5 65.0509M55.8289 40.867L79.1908 17.9787M55.8289 40.867H-5M79.1908 17.9787L95.5 2M79.1908 17.9787H-5M95.5 2H-5" stroke="url(#paint0_linear_35_122)" stroke-width="4"/>
<path opacity="0.35" d="M2 791L479 2M770 791L782.167 692.537M782.167 692.537L797.27 570.322M782.167 692.537H417.847M782.167 692.537H1148.27M797.27 570.322L806.876 492.588M797.27 570.322H1131.85M797.27 570.322H463.583M806.876 492.588L814.667 429.537M806.876 492.588H492.673M806.876 492.588H1121.41M814.667 429.537L821.392 375.123M814.667 429.537H1112.94M814.667 429.537H516.268M821.392 375.123L827.006 329.688M821.392 375.123H536.631M821.392 375.123H1105.63M827.006 329.688L833.826 274.501M827.006 329.688L1099.79 331.641M827.006 329.688L554.364 327.737M833.826 274.501L839.376 229.588M833.826 274.501H574.286M833.826 274.501H1092.11M839.376 229.588L843.432 196.767M839.376 229.588H591.094M839.376 229.588H1086.08M843.432 196.767L847.488 163.946M843.432 196.767H1081.67M843.432 196.767H603.376M847.488 163.946L851.544 131.125M847.488 163.946H615.659M847.488 163.946H1077.26M851.544 131.125L855.333 100.463M851.544 131.125H1072.85M851.544 131.125H627.941M855.333 100.463L859.422 67.3714M855.333 100.463H639.415M855.333 100.463H1068.73M859.422 67.3714L862.697 40.867M859.422 67.3714L652.007 66.8146M859.422 67.3714L1064.36 67.9215M862.697 40.867L865.525 17.9787M862.697 40.867H1060.72M862.697 40.867H661.718M865.525 17.9787L867.5 2M865.525 17.9787H670.283M865.525 17.9787H1057.65M867.5 2H286M867.5 2H1055.5M1161.5 791L1148.27 692.537M1148.27 692.537L1131.85 570.322M1148.27 692.537H1508.31M1131.85 570.322L1121.41 492.588M1131.85 570.322H1462.77M1121.41 492.588L1112.94 429.537M1121.41 492.588H1433.8M1112.94 429.537L1105.63 375.123M1112.94 429.537H1410.31M1105.63 375.123L1099.79 331.641M1105.63 375.123H1390.03M1099.79 331.641L1092.11 274.501M1099.79 331.641L1374.56 333.608M1092.11 274.501L1086.08 229.588M1092.11 274.501H1352.54M1086.08 229.588L1081.67 196.767M1086.08 229.588H1335.8M1081.67 196.767L1077.26 163.946M1081.67 196.767H1323.57M1077.26 163.946L1072.85 131.125M1077.26 163.946H1311.34M1072.85 131.125L1068.73 100.463M1072.85 131.125H1299.11M1068.73 100.463L1064.36 67.9215M1068.73 100.463H1287.69M1064.36 67.9215L1060.72 40.867M1064.36 67.9215L1275.78 68.489M1060.72 40.867L1057.65 17.9787M1060.72 40.867H1265.48M1057.65 17.9787L1055.5 2M1057.65 17.9787H1256.95M1055.5 2H1251M1545 791L1508.31 692.537M1508.31 692.537L1462.77 570.322M1508.31 692.537H1865.79M1462.77 570.322L1433.8 492.588M1462.77 570.322H1791.67M1433.8 492.588L1410.31 429.537M1433.8 492.588H1744.52M1410.31 429.537L1390.03 375.123M1410.31 429.537H1706.29M1390.03 375.123L1374.56 333.608M1390.03 375.123H1673.29M1374.56 333.608L1352.54 274.501M1374.56 333.608L1649.3 335.575M1352.54 274.501L1335.8 229.588M1352.54 274.501H1612.26M1335.8 229.588L1323.57 196.767M1335.8 229.588H1585.02M1323.57 196.767L1311.34 163.946M1323.57 196.767H1565.12M1311.34 163.946L1299.11 131.125M1311.34 163.946H1545.21M1299.11 131.125L1287.69 100.463M1299.11 131.125H1525.31M1287.69 100.463L1275.78 68.489M1287.69 100.463H1506.71M1275.78 68.489L1265.48 40.867M1275.78 68.489L1487.67 69.0578M1265.48 40.867L1256.95 17.9787M1265.48 40.867H1470.57M1256.95 17.9787L1251 2M1256.95 17.9787H1456.69M1251 2H1447M1925.5 791L1865.79 692.537M1865.79 692.537L1791.67 570.322M1865.79 692.537H1925.5M1791.67 570.322L1744.52 492.588M1791.67 570.322H1925.5M1744.52 492.588L1706.29 429.537M1744.52 492.588H1925.5M1706.29 429.537L1673.29 375.123M1706.29 429.537H1925.5M1673.29 375.123L1649.3 335.575M1673.29 375.123H1925.5M1649.3 335.575L1612.26 274.501M1649.3 335.575L1925.5 337.552L1872.89 274.501M1612.26 274.501L1585.02 229.588M1612.26 274.501H1872.89M1585.02 229.588L1565.12 196.767M1585.02 229.588H1835.41M1565.12 196.767L1545.21 163.946M1565.12 196.767H1808.02M1545.21 163.946L1525.31 131.125M1545.21 163.946H1780.64M1525.31 131.125L1506.71 100.463M1525.31 131.125H1753.25M1506.71 100.463L1487.67 69.0578M1506.71 100.463H1727.66M1487.67 69.0578L1470.57 40.867M1487.67 69.0578L1701.94 69.633M1470.57 40.867L1456.69 17.9787M1470.57 40.867H1677.93M1456.69 17.9787L1447 2M1456.69 17.9787H1658.83M1447 2H1645.5M1872.89 274.501L1835.41 229.588M1872.89 274.501H1925.5M1835.41 229.588L1808.02 196.767M1835.41 229.588H1925.5M1808.02 196.767L1780.64 163.946M1808.02 196.767H1925.5M1780.64 163.946L1753.25 131.125M1780.64 163.946H1925.5M1753.25 131.125L1727.66 100.463M1753.25 131.125H1925.5M1727.66 100.463L1701.94 69.633M1727.66 100.463H1925.5L1898.73 70.1613M1701.94 69.633L1677.93 40.867M1701.94 69.633L1898.73 70.1613M1677.93 40.867L1658.83 17.9787M1677.93 40.867H1872.84M1658.83 17.9787L1645.5 2M1658.83 17.9787H1852.62M1645.5 2H1838.5M1898.73 70.1613L1872.84 40.867M1898.73 70.1613L1925.5 70.2332M1872.84 40.867L1852.62 17.9787M1872.84 40.867H1925.5M1852.62 17.9787L1838.5 2M1852.62 17.9787H1925.5M1838.5 2H1925.5M381 791L417.847 692.537M417.847 692.537L463.583 570.322M417.847 692.537H-5M463.583 570.322L492.673 492.588M463.583 570.322H-5M492.673 492.588L516.268 429.537M492.673 492.588H-5M516.268 429.537L536.631 375.123M516.268 429.537H-5M536.631 375.123L554.364 327.737M536.631 375.123H-5M554.364 327.737L574.286 274.501M554.364 327.737L6.91061 323.818M574.286 274.501L591.094 229.588M574.286 274.501H49.6795M591.094 229.588L603.376 196.767M591.094 229.588H88.6293M603.376 196.767L615.659 163.946M603.376 196.767H117.093M615.659 163.946L627.941 131.125M615.659 163.946H145.556M627.941 131.125L639.415 100.463M627.941 131.125H174.019M639.415 100.463L652.007 66.8146M639.415 100.463H200.61M652.007 66.8146L661.718 40.867M652.007 66.8146L230.772 65.6838M661.718 40.867L670.283 17.9787M661.718 40.867H252.293M670.283 17.9787L676.5 2M670.283 17.9787H272.143M-5 337.552L6.91061 323.818M6.91061 323.818L49.6795 274.501M6.91061 323.818L-5 323.732M49.6795 274.501L88.6293 229.588M49.6795 274.501H-5M88.6293 229.588L117.093 196.767M88.6293 229.588H-5M117.093 196.767L145.556 163.946M117.093 196.767H-5M145.556 163.946L174.019 131.125M145.556 163.946H-5M174.019 131.125L200.61 100.463M174.019 131.125H-6.5V100.463M200.61 100.463L230.772 65.6838M200.61 100.463H-6.5M230.772 65.6838L252.293 40.867M230.772 65.6838L31.046 65.1477M252.293 40.867L272.143 17.9787M252.293 40.867H55.8289M272.143 17.9787L286 2M272.143 17.9787H79.1908M286 2H95.5M-6.5 100.463L31.046 65.1477M31.046 65.1477L55.8289 40.867M31.046 65.1477L-5 65.0509M55.8289 40.867L79.1908 17.9787M55.8289 40.867H-5M79.1908 17.9787L95.5 2M79.1908 17.9787H-5M95.5 2H-5" stroke="black" stroke-width="2"/>
<defs>
<linearGradient id="paint0_linear_35_122" x1="959.5" y1="2" x2="959.5" y2="791" gradientUnits="userSpaceOnUse">
<stop stop-color="#480064"/>
<stop offset="0.13" stop-color="#9A00D7"/>
<stop offset="1" stop-color="#2B1D31"/>
</linearGradient>
</defs>
</svg>
