<svg width="120" height="132" viewBox="0 0 120 132" fill="none" xmlns="http://www.w3.org/2000/svg">
<g clip-path="url(#clip0_35_149)">
<g filter="url(#filter0_d_35_149)">
<path d="M59.8845 131.849L11.2774 118.324L0.445312 -3.44662H119.469L108.626 118.305L59.8845 131.849Z" fill="#902BA9"/>
</g>
<path d="M99.3431 120.852L108.609 16.8093H59.9575V131.796L99.3431 120.852Z" fill="white" fill-opacity="0.15"/>
<path d="M25.2774 51.6727L26.6127 66.6074H59.9572V51.6727H25.2774ZM22.5938 21.4448L23.9482 36.3794H59.9572V21.4448H22.5938ZM59.9572 90.4597L59.8919 90.477L43.2973 85.9859L42.2364 74.075H27.2785L29.3659 97.5247L59.8886 106.017L59.9572 105.998V90.4597Z" fill="#EBEBEB"/>
<path d="M94.5422 51.6727L97.2319 21.4448H59.9062V36.3794H80.9023L79.5465 51.6727H59.9062V66.6074H78.2546L76.5246 85.9766L59.9058 90.4724V106.01L90.4528 97.5247L90.6768 95.0014L94.1788 55.6831L94.5422 51.6727Z" fill="white"/>
</g>
<defs>
<filter id="filter0_d_35_149" x="-3.55469" y="-3.44662" width="127.024" height="143.295" filterUnits="userSpaceOnUse" color-interpolation-filters="sRGB">
<feFlood flood-opacity="0" result="BackgroundImageFix"/>
<feColorMatrix in="SourceAlpha" type="matrix" values="0 0 0 0 0 0 0 0 0 0 0 0 0 0 0 0 0 0 127 0" result="hardAlpha"/>
<feOffset dy="4"/>
<feGaussianBlur stdDeviation="2"/>
<feComposite in2="hardAlpha" operator="out"/>
<feColorMatrix type="matrix" values="0 0 0 0 0 0 0 0 0 0 0 0 0 0 0 0 0 0 0.25 0"/>
<feBlend mode="normal" in2="BackgroundImageFix" result="effect1_dropShadow_35_149"/>
<feBlend mode="normal" in="SourceGraphic" in2="effect1_dropShadow_35_149" result="shape"/>
</filter>
<clipPath id="clip0_35_149">
<rect width="119.061" height="131.477" fill="white" transform="translate(0.426758 0.0126648)"/>
</clipPath>
</defs>
</svg>
