<svg width="10" height="10" viewBox="0 0 10 10" fill="none" xmlns="http://www.w3.org/2000/svg">
<path fill-rule="evenodd" clip-rule="evenodd" d="M5 0C7.7615 0 10 2.29496 10 5.12646C10 7.39096 8.569 9.31197 6.5835 9.99047C6.33 10.041 6.24 9.88087 6.24 9.74437C6.24 9.57537 6.246 9.02339 6.246 8.33739C6.246 7.85939 6.086 7.54742 5.9065 7.38842C7.02 7.26142 8.19 6.82788 8.19 4.85888C8.19 4.29888 7.996 3.84191 7.675 3.48291C7.727 3.35341 7.8985 2.83197 7.626 2.12597C7.626 2.12597 7.207 1.98861 6.2525 2.65161C5.853 2.53811 5.425 2.481 5 2.479C4.575 2.481 4.1475 2.53811 3.7485 2.65161C2.793 1.98861 2.373 2.12597 2.373 2.12597C2.1015 2.83197 2.273 3.35341 2.3245 3.48291C2.005 3.84191 1.8095 4.29888 1.8095 4.85888C1.8095 6.82288 2.977 7.26307 4.0875 7.39257C3.9445 7.52057 3.815 7.74637 3.77 8.07787C3.485 8.20887 2.761 8.43559 2.315 7.65209C2.315 7.65209 2.0505 7.15953 1.5485 7.12353C1.5485 7.12353 1.061 7.11705 1.5145 7.43505C1.5145 7.43505 1.842 7.59255 2.0695 8.18505C2.0695 8.18505 2.363 9.10003 3.754 8.79003C3.7565 9.21853 3.761 9.62237 3.761 9.74437C3.761 9.87987 3.669 10.0385 3.4195 9.99096C1.4325 9.31346 0 7.39146 0 5.12646C0 2.29496 2.239 0 5 0Z" fill="white"/>
</svg>
