<svg width="22" height="22" viewBox="0 0 22 22" fill="none" xmlns="http://www.w3.org/2000/svg">
<path d="M9.69409 2.11135C11.046 0.759478 12.8795 0 14.7914 0C18.7726 0 22 3.22741 22 7.20863C22 9.12048 21.2406 10.954 19.8887 12.3059L17.0695 15.125L15.125 13.1805L17.9442 10.3614C18.7803 9.5252 19.25 8.39113 19.25 7.20863C19.25 4.7462 17.2538 2.75 14.7914 2.75C13.6089 2.75 12.4748 3.21974 11.6386 4.05591L8.81954 6.875L6.875 4.93046L9.69409 2.11135Z" fill="white"/>
<path d="M10.3614 17.9442L13.1805 15.125L15.125 17.0695L12.3059 19.8887C10.954 21.2406 9.12048 22 7.20863 22C3.22741 22 0 18.7726 0 14.7914C0 12.8795 0.759477 11.046 2.11135 9.69409L4.93046 6.875L6.875 8.81954L4.05591 11.6386C3.21974 12.4748 2.75 13.6089 2.75 14.7914C2.75 17.2538 4.7462 19.25 7.20863 19.25C8.39113 19.25 9.5252 18.7803 10.3614 17.9442Z" fill="white"/>
<path d="M7.84728 16.0973L16.0973 7.84728L14.1527 5.90272L5.90272 14.1527L7.84728 16.0973Z" fill="white"/>
</svg>
