<svg width="29" height="29" fill="none" xmlns="http://www.w3.org/2000/svg"><g clip-path="url(#a)"><g filter="url(#b)"><path d="M.108.023h29v29h-29v-29z" fill="#902BA9"/></g><path d="m6.746 22.432 2.22-1.384c.428.782.817 1.444 1.751 1.444.896 0 1.46-.36 1.46-1.765v-9.55h2.726v9.59c0 2.909-1.655 4.233-4.069 4.233-2.18 0-3.445-1.164-4.088-2.568m9.637-.3 2.219-1.325c.584.983 1.343 1.705 2.686 1.705 1.13 0 1.85-.581 1.85-1.384 0-.963-.74-1.304-1.986-1.866l-.681-.3c-1.966-.863-3.27-1.947-3.27-4.233 0-2.107 1.557-3.712 3.99-3.712 1.733 0 2.979.622 3.874 2.247l-2.122 1.404c-.467-.862-.973-1.203-1.752-1.203-.798 0-1.304.521-1.304 1.203 0 .843.506 1.184 1.674 1.706l.681.3c2.317 1.024 3.62 2.067 3.62 4.414 0 2.528-1.926 3.912-4.515 3.912-2.53 0-4.166-1.244-4.964-2.869" fill="#fff"/></g><defs><clipPath id="a"><rect width="29" height="29" rx="4" fill="#fff"/></clipPath><filter id="b" x="-3.892" y=".023" width="37" height="37" filterUnits="userSpaceOnUse" color-interpolation-filters="sRGB"><feFlood flood-opacity="0" result="BackgroundImageFix"/><feColorMatrix in="SourceAlpha" values="0 0 0 0 0 0 0 0 0 0 0 0 0 0 0 0 0 0 127 0" result="hardAlpha"/><feOffset dy="4"/><feGaussianBlur stdDeviation="2"/><feComposite in2="hardAlpha" operator="out"/><feColorMatrix values="0 0 0 0 0 0 0 0 0 0 0 0 0 0 0 0 0 0 0.25 0"/><feBlend in2="BackgroundImageFix" result="effect1_dropShadow_93_8"/><feBlend in="SourceGraphic" in2="effect1_dropShadow_93_8" result="shape"/></filter></defs></svg>