<svg width="13" height="9" viewBox="0 0 13 9" fill="none" xmlns="http://www.w3.org/2000/svg">
<path d="M1.32353 7.70833L5.20588 4.5M11.7058 7.70833C11.4151 7.93141 10.976 8 10.7059 8H2.29412C1.25882 8 1 7.41667 1 7.125C1 5.66667 1 2.575 1 1.875C1 1.59876 1.13435 1.40429 1.32353 1.27005M11.7058 7.70833C11.8794 7.5751 12 7.38675 12 7.125C12 6.425 12 3.33333 12 1.875C12 1.58333 11.8059 1 11.0294 1C10.2529 1 4.88235 1 2.29412 1C2.03297 1 1.61374 1.06413 1.32353 1.27005M11.7058 7.70833L7.66652 4.45482M11.6765 1.29167L6.5 5.375L1.32353 1.27005" stroke="white" stroke-width="1.25"/>
</svg>
