<svg width="33" height="33" fill="none" xmlns="http://www.w3.org/2000/svg"><g clip-path="url(#a)"><path d="M33 16.5C33 7.387 25.613 0 16.5 0S0 7.387 0 16.5 7.387 33 16.5 33 33 25.613 33 16.5z" fill="#fff"/><path d="M15.42.009c-.072.006-.297.029-.5.045C10.231.477 5.841 3.005 3.06 6.892A16.331 16.331 0 0 0 .148 14.1C.016 15.007 0 15.274 0 16.503c0 1.23.016 1.497.148 2.403.897 6.196 5.307 11.402 11.287 13.33 1.072.346 2.2.581 3.484.723.5.055 2.662.055 3.162 0 2.216-.245 4.093-.794 5.945-1.739.284-.145.338-.183.3-.216-.026-.019-1.236-1.641-2.687-3.602L19 23.838l-3.306-4.893c-1.82-2.69-3.317-4.89-3.33-4.89-.012-.003-.025 2.17-.032 4.825-.01 4.648-.013 4.835-.07 4.945a.586.586 0 0 1-.285.293c-.103.052-.193.062-.68.062h-.558l-.149-.094a.603.603 0 0 1-.216-.235l-.068-.146.007-6.466.01-6.47.1-.126a.885.885 0 0 1 .238-.197c.133-.064.184-.07.742-.07.658 0 .768.025.939.212.048.052 1.839 2.748 3.98 5.996 2.143 3.248 5.072 7.683 6.51 9.86l2.613 3.957.132-.087c1.171-.761 2.41-1.845 3.39-2.974a16.423 16.423 0 0 0 3.885-8.434c.132-.906.148-1.174.148-2.403s-.016-1.496-.148-2.403C31.955 7.904 27.545 2.7 21.565.77a17.324 17.324 0 0 0-3.436-.72c-.31-.031-2.442-.067-2.71-.041zm6.754 9.98c.155.076.28.225.326.38.026.084.032 1.877.026 5.918l-.01 5.8-1.022-1.568-1.026-1.568v-4.215c0-2.726.013-4.258.032-4.332a.658.658 0 0 1 .32-.406c.132-.068.18-.074.686-.074.478 0 .562.006.668.064z" fill="#902BA9"/></g><defs><clipPath id="a"><path fill="#fff" d="M0 0h33v33H0z"/></clipPath></defs></svg>