<svg width="33" height="33" fill="none" xmlns="http://www.w3.org/2000/svg"><path d="M29.584 2.063H3.416c-.748 0-1.353.605-1.353 1.353v26.168c0 .748.605 1.354 1.353 1.354h26.168c.748 0 1.354-.606 1.354-1.354V3.416c0-.748-.606-1.353-1.354-1.353z" fill="#902BA9"/><path fill-rule="evenodd" clip-rule="evenodd" d="M18.815 24.502v3.163a6.691 6.691 0 0 0 1.82.593c.73.135 1.47.201 2.212.198.724.004 1.445-.07 2.154-.217a5.27 5.27 0 0 0 1.789-.722 3.652 3.652 0 0 0 1.218-1.306 4.609 4.609 0 0 0 .192-3.5 3.515 3.515 0 0 0-.74-1.152 5.401 5.401 0 0 0-1.158-.904c-.49-.287-.999-.54-1.523-.757a19.83 19.83 0 0 1-1.114-.5 5.675 5.675 0 0 1-.838-.493 2.155 2.155 0 0 1-.532-.534 1.125 1.125 0 0 1-.187-.638 1.072 1.072 0 0 1 .167-.588c.121-.184.283-.338.473-.45.233-.137.485-.235.749-.292.324-.072.654-.106.986-.103a6.493 6.493 0 0 1 2.578.552c.271.12.53.266.774.435v-2.953a7.741 7.741 0 0 0-1.572-.412 12.82 12.82 0 0 0-1.96-.133 9.042 9.042 0 0 0-2.128.242c-.63.144-1.23.4-1.77.756a3.77 3.77 0 0 0-1.207 1.31A3.847 3.847 0 0 0 18.753 18a3.7 3.7 0 0 0 .814 2.414 6.188 6.188 0 0 0 2.47 1.69c.433.179.837.354 1.212.525.338.15.663.328.97.533.25.162.468.366.646.603.157.215.24.475.238.742.001.2-.05.395-.149.569a1.31 1.31 0 0 1-.448.455c-.232.14-.485.242-.75.3a4.52 4.52 0 0 1-1.049.11 6.058 6.058 0 0 1-3.892-1.439zM13.5 16.625h4.125v-2.606H6.124v2.606h4.106V28.23h3.27V16.625z" fill="#fff"/></svg>