<svg width="29" height="32" fill="none" xmlns="http://www.w3.org/2000/svg"><g clip-path="url(#a)"><g filter="url(#b)"><path d="m14.482 32.087-11.84-3.291L.005-.842h28.991l-2.64 29.633-11.873 3.296z" fill="#902BA9"/></g><path d="M23.715 26.525 26 3H14v26l9.715-2.475z" fill="#fff" fill-opacity=".15"/><path d="m5.646 13.348.322 3.532H14V13.35H5.646zM5 6.2l.326 3.532H14V6.2H5zm9 16.321-.016.004-3.997-1.062-.256-2.817H6.128l.503 5.546 7.352 2.008.017-.004V22.52z" fill="#EBEBEB"/><path d="m23.269 13.365.72-7.149h-10v3.532h5.625l-.363 3.617H13.99v3.533h4.916l-.463 4.58-4.453 1.064v3.674l8.184-2.006.06-.597.938-9.3.098-.948z" fill="#fff"/></g><defs><clipPath id="a"><path fill="#fff" d="M0 0h29v32H0z"/></clipPath><filter id="b" x="-3.996" y="-.842" width="36.991" height="40.929" filterUnits="userSpaceOnUse" color-interpolation-filters="sRGB"><feFlood flood-opacity="0" result="BackgroundImageFix"/><feColorMatrix in="SourceAlpha" values="0 0 0 0 0 0 0 0 0 0 0 0 0 0 0 0 0 0 127 0" result="hardAlpha"/><feOffset dy="4"/><feGaussianBlur stdDeviation="2"/><feComposite in2="hardAlpha" operator="out"/><feColorMatrix values="0 0 0 0 0 0 0 0 0 0 0 0 0 0 0 0 0 0 0.25 0"/><feBlend in2="BackgroundImageFix" result="effect1_dropShadow_93_2"/><feBlend in="SourceGraphic" in2="effect1_dropShadow_93_2" result="shape"/></filter></defs></svg>