<svg width="10" height="10" fill="none" xmlns="http://www.w3.org/2000/svg"><path fill-rule="evenodd" clip-rule="evenodd" d="M5 0c2.761 0 5 2.295 5 5.126 0 2.265-1.431 4.186-3.417 4.864-.253.051-.343-.11-.343-.246 0-.169.006-.72.006-1.407 0-.478-.16-.79-.34-.949 1.114-.127 2.284-.56 2.284-2.53 0-.56-.194-1.016-.515-1.375.052-.13.224-.651-.049-1.357 0 0-.419-.137-1.373.526-.4-.114-.828-.171-1.253-.173-.425.002-.853.06-1.252.173-.955-.663-1.375-.526-1.375-.526-.272.706-.1 1.227-.049 1.357-.319.359-.514.816-.514 1.376 0 1.964 1.167 2.404 2.278 2.534-.143.128-.273.353-.318.685-.285.13-1.009.358-1.455-.426 0 0-.264-.492-.766-.528 0 0-.488-.007-.034.311 0 0 .327.158.555.75 0 0 .293.915 1.684.605.002.429.007.832.007.954 0 .136-.092.295-.341.247C1.433 9.313 0 7.391 0 5.126 0 2.295 2.239 0 5 0z" fill="#fff"/></svg>