<svg width="33" height="33" fill="none" xmlns="http://www.w3.org/2000/svg"><path d="M6.188 2.063h20.625a4.137 4.137 0 0 1 4.125 4.124v20.625a4.137 4.137 0 0 1-4.125 4.125H6.188a4.137 4.137 0 0 1-4.125-4.125V6.188a4.137 4.137 0 0 1 4.124-4.125z" fill="#902BA9"/><path d="M28.36 16.5c0-1.65-1.96-2.99-4.848-3.919.722-2.99.413-5.362-.928-6.084-.412-.206-.721-.31-1.134-.31-1.34 0-2.99.929-4.64 2.579-1.754-1.65-3.404-2.579-4.744-2.579-.413 0-.825.104-1.135.31-1.34.722-1.65 3.094-.928 6.084-2.887.928-4.847 2.269-4.847 3.919s1.96 2.99 4.847 3.919c-.722 2.99-.515 5.362.928 6.187.31.206.722.31 1.135.31 1.34 0 2.99-.928 4.64-2.579 1.65 1.65 3.403 2.579 4.64 2.579.413 0 .826-.104 1.135-.31 1.34-.825 1.65-3.197.928-6.187 2.991-.928 4.95-2.372 4.95-3.919zm-6.91-9.178c.206 0 .413 0 .516.103.618.413.928 1.753.721 3.506-.103.413-.103.928-.206 1.34-.928-.205-1.96-.412-2.99-.515-.62-.825-1.238-1.65-1.857-2.268 1.444-1.444 2.888-2.166 3.816-2.166zm-1.547 11.034c-.31.619-.722 1.135-1.031 1.753-.722 0-1.34.103-2.063.103-.722 0-1.443 0-2.062-.103-.413-.515-.722-1.134-1.031-1.753-.31-.619-.62-1.237-.928-1.856l.928-1.856a10.22 10.22 0 0 1 1.134-1.753c.619 0 1.34-.104 2.063-.104.721 0 1.34 0 2.062.104.412.515.722 1.134 1.134 1.753.31.618.62 1.237.928 1.856-.412.619-.825 1.238-1.134 1.856zm1.547-.515c.206.618.413 1.134.619 1.753l-1.857.31a9.07 9.07 0 0 0 .62-1.032c.206-.31.412-.722.618-1.031zm-4.744 4.846c-.412-.412-.825-.928-1.237-1.443h2.475c-.413.515-.825 1.031-1.238 1.444zM13.2 19.904l-1.856-.31c.206-.618.412-1.134.619-1.752.206.309.412.721.618 1.03.207.413.413.723.619 1.032zm-1.134-4.744a33.536 33.536 0 0 0-.62-1.753l1.857-.31c-.206.31-.412.723-.619 1.032-.309.31-.515.722-.618 1.031zm4.64-4.847c.413.413.825.929 1.238 1.444h-2.475c.412-.515.825-1.031 1.237-1.444zm4.125 3.816a9.061 9.061 0 0 0-.619-1.031l1.857.31a33.536 33.536 0 0 1-.619 1.752c-.206-.309-.412-.722-.619-1.03zm-10.003-3.197c-.206-1.753 0-3.093.722-3.506.103-.103.31-.103.516-.103.928 0 2.371.722 3.918 2.269-.618.722-1.237 1.443-1.856 2.268-1.031.104-2.062.31-2.99.516-.207-.516-.31-1.031-.31-1.444zM8.972 18.77c-1.65-.722-2.681-1.547-2.681-2.372 0-.722 1.03-1.65 2.68-2.372.413-.206.826-.31 1.341-.412.31.928.62 1.856 1.032 2.784-.413.928-.825 1.856-1.031 2.784-.516 0-.929-.206-1.341-.412zm2.578 6.806c-.619-.412-.928-1.753-.722-3.506.103-.413.103-.928.31-1.444.928.206 1.856.413 2.887.516.619.825 1.237 1.65 1.96 2.372-1.547 1.443-2.991 2.268-3.92 2.268-.206-.103-.412-.103-.515-.206zm11.137-3.506c.207 1.753 0 3.094-.721 3.506-.104.103-.31.103-.516.103-.928 0-2.372-.722-3.919-2.269.619-.721 1.34-1.443 1.96-2.371 1.03-.104 2.062-.207 2.887-.516.103.619.206 1.134.31 1.547zm1.857-3.3c-.413.206-.825.31-1.34.515-.31-.928-.62-1.856-1.032-2.784.412-.928.825-1.96 1.031-2.784.516.103.928.309 1.34.412 1.65.722 2.682 1.547 2.682 2.372 0 .722-1.031 1.65-2.681 2.269z" fill="#fff"/><path d="M16.81 18.666c1.237 0 2.165-.928 2.165-2.166s-.928-2.166-2.166-2.166c-1.237 0-2.165.928-2.165 2.166s.928 2.166 2.165 2.166z" fill="#fff"/></svg>